<svg width="366" height="277" viewBox="0 0 366 277" fill="none" xmlns="http://www.w3.org/2000/svg">
<path d="M356.754 0H9.24631C6.79404 0 4.44219 1.07098 2.70817 2.97732C0.974154 4.88365 0 7.46917 0 10.1651V10.1651V243.116H366V10.1651C366 8.83023 365.761 7.5084 365.296 6.27511C364.832 5.04182 364.15 3.92124 363.292 2.97732C362.433 2.0334 361.414 1.28463 360.292 0.773782C359.17 0.262936 357.968 1.1543e-06 356.754 0H356.754Z" fill="#3F3D56"/>
<path d="M183.385 277C188.492 277 192.632 272.449 192.632 266.835C192.632 261.221 188.492 256.67 183.385 256.67C178.279 256.67 174.139 261.221 174.139 266.835C174.139 272.449 178.279 277 183.385 277Z" fill="#3F3D56"/>
<path d="M339.033 29.7732H27.2804V200.514H339.033V29.7732Z" fill="white"/>
</svg>
