<svg width="366" height="277" viewBox="0 0 366 277" fill="none" xmlns="http://www.w3.org/2000/svg">
<path d="M356.754 0H9.24631C6.79404 0 4.44219 1.07098 2.70817 2.97732C0.974154 4.88365 0 7.46917 0 10.1651V10.1651V243.116H366V10.1651C366 8.83023 365.761 7.5084 365.296 6.27511C364.832 5.04182 364.15 3.92124 363.292 2.97732C362.433 2.0334 361.414 1.28463 360.292 0.773782C359.17 0.262936 357.968 1.1543e-06 356.754 0H356.754Z" fill="#3F3D56"/>
<path d="M183.385 277C188.492 277 192.632 272.449 192.632 266.835C192.632 261.221 188.492 256.67 183.385 256.67C178.279 256.67 174.139 261.221 174.139 266.835C174.139 272.449 178.279 277 183.385 277Z" fill="#3F3D56"/>
<path d="M339.033 29.7732H27.2804V200.514H339.033V29.7732Z" fill="white"/>
<path d="M154.898 118.328C154.742 120.073 154.221 121.635 153.336 123.016C152.451 124.396 151.318 125.555 149.938 126.492C148.583 127.456 147.047 128.185 145.328 128.68C143.609 129.174 141.839 129.422 140.016 129.422C139.339 129.422 138.701 129.37 138.102 129.266C137.529 129.188 137.008 129.083 136.539 128.953C136.07 128.823 135.667 128.693 135.328 128.562C135.016 128.458 134.794 128.367 134.664 128.289C134.43 128.159 134.234 127.99 134.078 127.781C133.948 127.599 133.87 127.326 133.844 126.961C133.818 126.753 133.805 126.583 133.805 126.453C133.805 126.349 133.818 126.232 133.844 126.102C133.87 125.971 133.922 125.789 134 125.555C134.052 125.346 134.13 125.047 134.234 124.656C134.286 124.422 134.482 123.68 134.82 122.43C135.185 121.206 135.615 119.708 136.109 117.938C136.604 116.141 137.138 114.201 137.711 112.117C138.31 110.034 138.883 108.016 139.43 106.062C139.977 104.109 140.471 102.352 140.914 100.789C141.357 99.2005 141.682 98.0286 141.891 97.2734C141.526 97.5339 141.161 97.8073 140.797 98.0938C140.458 98.3802 140.107 98.6927 139.742 99.0312C139.352 99.3958 138.961 99.526 138.57 99.4219C138.206 99.2917 137.945 98.9661 137.789 98.4453C137.737 98.1849 137.698 97.9115 137.672 97.625C137.646 97.3906 137.646 97.1302 137.672 96.8438C137.724 96.5312 137.828 96.2318 137.984 95.9453C138.844 95.4245 139.677 94.9818 140.484 94.6172C141.318 94.2526 142.112 93.9271 142.867 93.6406C143.023 93.1979 143.193 92.8594 143.375 92.625C143.583 92.3906 143.792 92.2344 144 92.1562C144.208 92.0781 144.43 92.0521 144.664 92.0781C144.898 92.1042 145.146 92.1432 145.406 92.1953C145.979 92.3255 146.357 92.5078 146.539 92.7422C146.904 92.6901 147.255 92.651 147.594 92.625C147.932 92.599 148.284 92.5859 148.648 92.5859C150.159 92.5859 151.474 92.7812 152.594 93.1719C153.714 93.5625 154.625 94.0964 155.328 94.7734C156.057 95.4245 156.578 96.1927 156.891 97.0781C157.203 97.9635 157.32 98.901 157.242 99.8906C157.164 100.75 156.93 101.648 156.539 102.586C156.174 103.497 155.68 104.409 155.055 105.32C154.43 106.206 153.701 107.078 152.867 107.938C152.034 108.771 151.109 109.539 150.094 110.242C150.901 110.711 151.617 111.258 152.242 111.883C152.867 112.508 153.388 113.185 153.805 113.914C154.221 114.643 154.521 115.385 154.703 116.141C154.885 116.896 154.951 117.625 154.898 118.328ZM141.969 108.758C141.917 109.018 141.852 109.279 141.773 109.539C141.721 109.799 141.656 110.073 141.578 110.359C141.891 110.021 142.411 109.708 143.141 109.422C143.896 109.135 144.612 108.992 145.289 108.992C145.654 108.992 146.005 109.018 146.344 109.07C146.682 109.096 147.008 109.135 147.32 109.188C148.049 108.719 148.753 108.12 149.43 107.391C150.107 106.635 150.693 105.841 151.188 105.008C151.708 104.148 152.125 103.276 152.438 102.391C152.776 101.505 152.984 100.685 153.062 99.9297C153.219 98.1328 152.906 96.8047 152.125 95.9453C151.37 95.0599 150.289 94.6172 148.883 94.6172C147.945 94.6172 146.969 94.7865 145.953 95.125C145.745 95.8021 145.484 96.6484 145.172 97.6641C144.859 98.6536 144.521 99.7474 144.156 100.945C143.818 102.143 143.453 103.406 143.062 104.734C142.672 106.062 142.307 107.404 141.969 108.758ZM141.305 111.336C140.94 112.742 140.576 114.266 140.211 115.906C139.872 117.312 139.508 118.953 139.117 120.828C138.727 122.677 138.31 124.656 137.867 126.766C138.023 126.896 138.232 126.987 138.492 127.039C138.753 127.091 139.013 127.143 139.273 127.195C139.56 127.247 139.872 127.273 140.211 127.273C141.383 127.273 142.568 127.026 143.766 126.531C144.99 126.062 146.109 125.385 147.125 124.5C148.141 123.615 148.987 122.547 149.664 121.297C150.367 120.021 150.784 118.602 150.914 117.039C150.966 116.336 150.914 115.711 150.758 115.164C150.628 114.591 150.419 114.083 150.133 113.641C149.872 113.172 149.56 112.768 149.195 112.43C148.857 112.065 148.492 111.753 148.102 111.492C146.904 112.143 145.589 112.69 144.156 113.133C143.688 113.263 143.284 113.289 142.945 113.211C142.607 113.107 142.32 112.964 142.086 112.781C141.852 112.573 141.669 112.339 141.539 112.078C141.409 111.818 141.331 111.57 141.305 111.336ZM164.43 118.992C162.685 118.992 161.409 118.432 160.602 117.312C159.82 116.193 159.495 114.682 159.625 112.781C159.729 111.609 159.951 110.112 160.289 108.289C160.576 106.727 161.005 104.76 161.578 102.391C162.177 100.021 162.984 97.1562 164 93.7969C164.312 93.5885 164.625 93.4323 164.938 93.3281C165.276 93.1979 165.576 93.1068 165.836 93.0547C166.122 92.9766 166.422 92.9245 166.734 92.8984C166.969 92.8724 167.216 92.8594 167.477 92.8594C167.685 92.8594 167.893 92.8854 168.102 92.9375C168.31 92.9635 168.479 93.0286 168.609 93.1328C167.281 96.5443 166.24 99.4609 165.484 101.883C164.755 104.305 164.208 106.297 163.844 107.859C163.401 109.682 163.128 111.18 163.023 112.352C162.945 113.784 163.154 114.799 163.648 115.398C164.169 115.997 164.938 116.297 165.953 116.297C166.76 116.297 167.581 115.997 168.414 115.398C169.247 114.773 170.055 113.901 170.836 112.781C171.617 111.635 172.333 110.268 172.984 108.68C173.661 107.065 174.234 105.255 174.703 103.25C174.911 102.13 175.146 101.01 175.406 99.8906C175.615 98.9271 175.849 97.8984 176.109 96.8047C176.37 95.6849 176.617 94.6432 176.852 93.6797C177.086 93.4714 177.333 93.3151 177.594 93.2109C177.88 93.0807 178.141 92.9766 178.375 92.8984C178.661 92.7943 178.948 92.7292 179.234 92.7031C179.495 92.6771 179.755 92.6771 180.016 92.7031C180.224 92.7292 180.432 92.7682 180.641 92.8203C180.875 92.8724 181.057 92.9635 181.188 93.0938C180.745 94.474 180.354 95.724 180.016 96.8438C179.703 97.9635 179.43 98.9271 179.195 99.7344C178.909 100.672 178.661 101.505 178.453 102.234C178.245 103.016 177.997 104.031 177.711 105.281C177.424 106.375 177.073 107.755 176.656 109.422C176.24 111.089 175.732 113.146 175.133 115.594C174.977 116.219 174.781 117 174.547 117.938C174.312 118.875 174 119.852 173.609 120.867C173.245 121.883 172.776 122.885 172.203 123.875C171.656 124.891 170.966 125.802 170.133 126.609C169.326 127.417 168.362 128.068 167.242 128.562C166.122 129.057 164.82 129.305 163.336 129.305C162.477 129.279 161.708 129.148 161.031 128.914C160.432 128.706 159.872 128.393 159.352 127.977C158.857 127.586 158.57 127.013 158.492 126.258C158.622 125.971 158.766 125.711 158.922 125.477C159.078 125.242 159.234 125.021 159.391 124.812C159.573 124.578 159.755 124.357 159.938 124.148C160.12 123.966 160.315 123.797 160.523 123.641C160.706 123.51 160.901 123.393 161.109 123.289C161.318 123.185 161.526 123.133 161.734 123.133C161.839 123.367 161.995 123.641 162.203 123.953C162.411 124.266 162.672 124.552 162.984 124.812C163.297 125.099 163.648 125.333 164.039 125.516C164.43 125.698 164.859 125.789 165.328 125.789C165.953 125.789 166.617 125.581 167.32 125.164C168.023 124.773 168.714 124.083 169.391 123.094C170.094 122.13 170.771 120.815 171.422 119.148C172.073 117.482 172.685 115.385 173.258 112.859C172.919 113.458 172.49 114.109 171.969 114.812C171.448 115.516 170.823 116.18 170.094 116.805C169.391 117.43 168.557 117.951 167.594 118.367C166.656 118.784 165.602 118.992 164.43 118.992ZM181.969 97.5469C181.656 97.651 181.422 97.6641 181.266 97.5859C181.109 97.5078 180.992 97.3776 180.914 97.1953C180.836 97.013 180.797 96.8177 180.797 96.6094C180.797 96.375 180.81 96.1536 180.836 95.9453C180.862 95.763 180.901 95.5547 180.953 95.3203C181.031 95.0859 181.122 94.8646 181.227 94.6562C181.331 94.4479 181.448 94.2786 181.578 94.1484C181.734 93.9922 181.93 93.888 182.164 93.8359C183.362 93.6276 184.521 93.4714 185.641 93.3672C186.786 93.263 187.815 93.1849 188.727 93.1328C189.768 93.0547 190.771 93.0156 191.734 93.0156C191.943 93.0156 192.151 93.0286 192.359 93.0547C192.568 93.0547 192.776 93.0547 192.984 93.0547C193.219 93.0026 193.401 92.9896 193.531 93.0156C193.688 93.0156 193.818 93.0286 193.922 93.0547C194.677 93.0807 195.458 93.1198 196.266 93.1719C196.943 93.224 197.698 93.2891 198.531 93.3672C199.391 93.4193 200.237 93.4974 201.07 93.6016C201.148 93.8099 201.161 94.0703 201.109 94.3828C201.083 94.5391 201.057 94.6953 201.031 94.8516C201.005 95.0078 200.94 95.151 200.836 95.2812C200.758 95.4115 200.654 95.5417 200.523 95.6719C200.419 95.776 200.289 95.8672 200.133 95.9453C199.247 95.9193 198.388 95.9062 197.555 95.9062C196.747 95.8802 196.031 95.8672 195.406 95.8672H193.297C192.958 97.0651 192.542 98.5495 192.047 100.32C191.552 102.065 191.044 103.914 190.523 105.867C190.029 107.794 189.547 109.721 189.078 111.648C188.635 113.549 188.284 115.268 188.023 116.805C187.763 118.289 187.503 119.747 187.242 121.18C187.138 121.779 187.021 122.404 186.891 123.055C186.786 123.706 186.682 124.344 186.578 124.969C186.5 125.594 186.422 126.193 186.344 126.766C186.266 127.339 186.201 127.859 186.148 128.328C185.732 128.536 185.341 128.693 184.977 128.797C184.612 128.927 184.286 129.018 184 129.07C183.661 129.148 183.349 129.188 183.062 129.188C182.438 129.188 182.047 129.109 181.891 128.953C181.76 128.823 181.747 128.549 181.852 128.133C181.93 127.768 182.164 126.779 182.555 125.164C182.711 124.487 182.906 123.628 183.141 122.586C183.401 121.57 183.701 120.333 184.039 118.875C184.378 117.391 184.781 115.672 185.25 113.719C185.719 111.74 186.253 109.474 186.852 106.922L189.469 96.0625C188.688 96.1667 187.919 96.2839 187.164 96.4141C186.409 96.5443 185.693 96.6875 185.016 96.8438C184.365 96.974 183.766 97.1042 183.219 97.2344C182.698 97.3646 182.281 97.4688 181.969 97.5469ZM204.156 129.266C202.932 129.266 201.786 129.07 200.719 128.68C199.677 128.289 198.753 127.742 197.945 127.039C197.164 126.336 196.539 125.503 196.07 124.539C195.602 123.602 195.354 122.573 195.328 121.453C195.302 119.995 195.536 118.693 196.031 117.547C196.5 116.401 197.125 115.385 197.906 114.5C198.714 113.615 199.625 112.872 200.641 112.273C201.656 111.648 202.698 111.141 203.766 110.75C203.193 110.438 202.646 110.06 202.125 109.617C201.63 109.174 201.188 108.68 200.797 108.133C200.406 107.586 200.094 107.013 199.859 106.414C199.625 105.815 199.508 105.216 199.508 104.617C199.456 102.794 199.82 101.141 200.602 99.6562C201.409 98.1719 202.438 96.9089 203.688 95.8672C204.938 94.7995 206.331 93.9792 207.867 93.4062C209.43 92.8333 210.953 92.5469 212.438 92.5469C213.427 92.5469 214.273 92.7161 214.977 93.0547C215.68 93.3672 216.253 93.7708 216.695 94.2656C217.138 94.7344 217.464 95.2552 217.672 95.8281C217.906 96.375 218.036 96.8828 218.062 97.3516C218.089 98.2109 217.971 99.0833 217.711 99.9688C217.477 100.854 217.164 101.661 216.773 102.391C216.409 103.094 215.992 103.68 215.523 104.148C215.055 104.591 214.599 104.812 214.156 104.812C213.818 104.812 213.466 104.76 213.102 104.656C212.789 104.578 212.424 104.448 212.008 104.266C211.591 104.083 211.174 103.81 210.758 103.445C211.435 103.185 212.034 102.82 212.555 102.352C213.076 101.857 213.505 101.31 213.844 100.711C214.208 100.112 214.469 99.5 214.625 98.875C214.807 98.224 214.898 97.612 214.898 97.0391C214.872 96.2057 214.677 95.5677 214.312 95.125C213.948 94.6562 213.362 94.4219 212.555 94.4219C211.461 94.4219 210.367 94.6953 209.273 95.2422C208.18 95.763 207.203 96.5052 206.344 97.4688C205.51 98.4062 204.846 99.5391 204.352 100.867C203.883 102.169 203.727 103.589 203.883 105.125C204.013 106.297 204.365 107.286 204.938 108.094C205.536 108.901 206.096 109.526 206.617 109.969C207.034 109.917 207.424 109.878 207.789 109.852C208.154 109.799 208.492 109.773 208.805 109.773C209.247 109.773 209.69 109.852 210.133 110.008C210.576 110.164 210.797 110.385 210.797 110.672C210.797 110.88 210.745 111.115 210.641 111.375C210.562 111.635 210.419 111.883 210.211 112.117C210.003 112.352 209.755 112.547 209.469 112.703C209.182 112.859 208.844 112.938 208.453 112.938C208.141 112.938 207.763 112.859 207.32 112.703C206.878 112.547 206.435 112.352 205.992 112.117C205.003 112.326 204.104 112.703 203.297 113.25C202.49 113.771 201.799 114.396 201.227 115.125C200.68 115.854 200.25 116.648 199.938 117.508C199.625 118.367 199.482 119.201 199.508 120.008C199.534 120.763 199.651 121.518 199.859 122.273C200.068 123.055 200.393 123.745 200.836 124.344C201.279 124.943 201.852 125.424 202.555 125.789C203.284 126.18 204.156 126.375 205.172 126.375C205.927 126.375 206.643 126.206 207.32 125.867C208.023 125.555 208.674 125.151 209.273 124.656C209.872 124.161 210.419 123.615 210.914 123.016C211.409 122.417 211.839 121.831 212.203 121.258C212.568 120.685 212.867 120.164 213.102 119.695C213.362 119.227 213.544 118.888 213.648 118.68C213.727 118.523 213.831 118.406 213.961 118.328C214.117 118.25 214.26 118.237 214.391 118.289C214.547 118.315 214.664 118.406 214.742 118.562C214.82 118.719 214.82 118.953 214.742 119.266C214.534 120.203 214.143 121.245 213.57 122.391C212.997 123.562 212.255 124.656 211.344 125.672C210.458 126.688 209.404 127.534 208.18 128.211C206.982 128.914 205.641 129.266 204.156 129.266ZM231.812 104.07C231.786 103.992 231.865 103.797 232.047 103.484C232.229 103.146 232.424 102.742 232.633 102.273C232.867 101.779 233.089 101.232 233.297 100.633C233.531 100.008 233.688 99.3698 233.766 98.7188C233.87 98.0677 233.87 97.4167 233.766 96.7656C233.661 96.1146 233.388 95.4896 232.945 94.8906C232.685 94.5781 232.294 94.4089 231.773 94.3828C231.279 94.3307 230.706 94.4089 230.055 94.6172C229.43 94.7995 228.766 95.099 228.062 95.5156C227.385 95.9062 226.76 96.375 226.188 96.9219C225.615 97.4427 225.12 98.0286 224.703 98.6797C224.312 99.3307 224.091 99.9948 224.039 100.672C223.987 101.219 224 101.727 224.078 102.195C224.182 102.664 224.312 103.094 224.469 103.484C224.625 103.875 224.794 104.24 224.977 104.578C225.159 104.917 225.328 105.216 225.484 105.477C225.693 105.841 226.018 106.245 226.461 106.688C226.904 107.13 227.385 107.638 227.906 108.211C228.427 108.758 228.948 109.383 229.469 110.086C229.99 110.789 230.445 111.583 230.836 112.469C231.227 113.354 231.5 114.344 231.656 115.438C231.812 116.531 231.799 117.742 231.617 119.07C231.331 120.997 230.875 122.599 230.25 123.875C229.625 125.177 228.935 126.219 228.18 127C227.451 127.781 226.708 128.341 225.953 128.68C225.198 129.044 224.573 129.279 224.078 129.383C223.688 129.461 223.219 129.526 222.672 129.578C222.151 129.656 221.591 129.643 220.992 129.539C220.419 129.461 219.833 129.279 219.234 128.992C218.635 128.732 218.102 128.315 217.633 127.742C217.086 127.091 216.656 126.388 216.344 125.633C216.057 124.982 215.849 124.227 215.719 123.367C215.562 122.534 215.628 121.661 215.914 120.75C216.122 120.516 216.344 120.307 216.578 120.125C216.812 119.943 217.047 119.786 217.281 119.656C217.542 119.5 217.815 119.357 218.102 119.227C218.44 119.122 218.779 119.031 219.117 118.953C219.404 118.901 219.703 118.875 220.016 118.875C220.354 118.849 220.667 118.888 220.953 118.992C220.562 119.435 220.289 119.852 220.133 120.242C220.029 120.451 219.951 120.633 219.898 120.789C219.794 121.284 219.755 121.87 219.781 122.547C219.833 123.25 219.977 123.914 220.211 124.539C220.471 125.19 220.836 125.737 221.305 126.18C221.773 126.648 222.398 126.896 223.18 126.922C225.081 126.974 226.695 125.49 228.023 122.469C228.466 121.531 228.688 120.581 228.688 119.617C228.714 118.654 228.596 117.729 228.336 116.844C228.102 115.958 227.776 115.138 227.359 114.383C226.969 113.602 226.565 112.938 226.148 112.391C225.732 111.844 225.224 111.258 224.625 110.633C224.052 109.982 223.479 109.279 222.906 108.523C222.333 107.768 221.812 106.948 221.344 106.062C220.901 105.177 220.602 104.214 220.445 103.172C220.237 101.714 220.367 100.385 220.836 99.1875C221.331 97.9635 221.982 96.8958 222.789 95.9844C223.622 95.0729 224.521 94.3307 225.484 93.7578C226.474 93.1849 227.346 92.8203 228.102 92.6641C232.294 91.8307 235.042 92.5339 236.344 94.7734C236.891 95.6328 237.19 96.5443 237.242 97.5078C237.294 98.4714 237.229 99.3698 237.047 100.203C236.891 101.01 236.682 101.701 236.422 102.273C236.188 102.82 236.031 103.12 235.953 103.172C235.797 103.328 235.549 103.497 235.211 103.68C234.872 103.862 234.326 104.031 233.57 104.188C233.362 104.24 233.154 104.266 232.945 104.266C232.763 104.266 232.568 104.253 232.359 104.227C232.151 104.201 231.969 104.148 231.812 104.07Z" fill="url(#paint0_linear)"/>
<defs>
<linearGradient id="paint0_linear" x1="186" y1="84" x2="186" y2="140" gradientUnits="userSpaceOnUse">
<stop stop-color="#2B38AD"/>
<stop offset="1" stop-color="#AD2B2B" stop-opacity="0.77"/>
</linearGradient>
</defs>
</svg>
