<svg width="380" height="283" viewBox="0 0 380 283" fill="none" xmlns="http://www.w3.org/2000/svg">
<path d="M356.754 0H9.24631C6.79404 0 4.44219 1.07098 2.70817 2.97732C0.974154 4.88365 0 7.46917 0 10.1651V10.1651V243.116H366V10.1651C366 8.83023 365.761 7.5084 365.296 6.27511C364.832 5.04182 364.15 3.92124 363.292 2.97732C362.433 2.0334 361.414 1.28463 360.292 0.773782C359.17 0.262936 357.968 1.1543e-06 356.754 0H356.754Z" fill="#3F3D56"/>
<path d="M183.385 277C188.492 277 192.632 272.449 192.632 266.835C192.632 261.221 188.492 256.67 183.385 256.67C178.279 256.67 174.139 261.221 174.139 266.835C174.139 272.449 178.279 277 183.385 277Z" fill="#3F3D56"/>
<path d="M339.033 29.7732H27.2804V200.514H339.033V29.7732Z" fill="white"/>
<path d="M65.0391 276.359C64.2578 276.359 63.5469 276.172 62.9062 275.797C62.2812 275.422 61.7422 274.906 61.2891 274.25C60.8516 273.594 60.5156 272.828 60.2812 271.953C60.0625 271.062 59.9688 270.117 60 269.117C60.0312 268.18 60.1484 267.164 60.3516 266.07C60.5703 264.977 60.875 263.883 61.2656 262.789C61.6562 261.68 62.125 260.617 62.6719 259.602C63.2344 258.57 63.875 257.664 64.5938 256.883C65.3125 256.102 66.1094 255.477 66.9844 255.008C67.8594 254.523 68.8203 254.281 69.8672 254.281C70.5078 254.281 71.0469 254.414 71.4844 254.68C71.9375 254.93 72.2969 255.266 72.5625 255.688C72.8438 256.109 73.0391 256.586 73.1484 257.117C73.2578 257.648 73.3047 258.188 73.2891 258.734C73.2578 259.25 73.1797 259.75 73.0547 260.234C72.9453 260.719 72.7812 261.156 72.5625 261.547C72.3594 261.922 72.1016 262.227 71.7891 262.461C71.4922 262.68 71.1484 262.789 70.7578 262.789C70.5703 262.773 70.3906 262.711 70.2188 262.602C70.0625 262.508 69.8984 262.367 69.7266 262.18C69.5703 261.992 69.4219 261.719 69.2812 261.359C69.7031 261.188 70.0312 260.891 70.2656 260.469C70.5156 260.031 70.7031 259.578 70.8281 259.109C70.9688 258.578 71.0625 257.984 71.1094 257.328C71.1406 256.688 71.0078 256.219 70.7109 255.922C70.4141 255.625 70.0781 255.477 69.7031 255.477C68.9688 255.477 68.1953 255.859 67.3828 256.625C66.5703 257.391 65.8125 258.43 65.1094 259.742C64.4219 261.039 63.8359 262.555 63.3516 264.289C62.8828 266.023 62.6094 267.859 62.5312 269.797C62.5 270.672 62.5547 271.414 62.6953 272.023C62.8516 272.633 63.0625 273.133 63.3281 273.523C63.6094 273.914 63.9219 274.195 64.2656 274.367C64.6094 274.539 64.9531 274.625 65.2969 274.625C65.8438 274.625 66.3594 274.508 66.8438 274.273C67.3281 274.039 67.7656 273.75 68.1562 273.406C68.5625 273.062 68.9062 272.703 69.1875 272.328C69.4844 271.969 69.7109 271.648 69.8672 271.367C69.9766 271.164 70.0938 271.039 70.2188 270.992C70.3438 270.945 70.4531 270.961 70.5469 271.039C70.6406 271.102 70.7031 271.211 70.7344 271.367C70.7656 271.508 70.7344 271.68 70.6406 271.883C70.375 272.414 70.0469 272.945 69.6562 273.477C69.2812 274.008 68.8516 274.484 68.3672 274.906C67.8984 275.344 67.3828 275.695 66.8203 275.961C66.2578 276.227 65.6641 276.359 65.0391 276.359ZM80.1094 268.273C79.9531 268.867 79.7422 269.422 79.4766 269.938C79.2109 270.453 78.8906 270.898 78.5156 271.273C78.1562 271.648 77.7422 271.938 77.2734 272.141C76.8203 272.359 76.3203 272.469 75.7734 272.469C75.1328 272.469 74.625 272.328 74.25 272.047C73.8906 271.781 73.6172 271.445 73.4297 271.039C73.2578 270.633 73.1562 270.188 73.125 269.703C73.0781 269.219 73.0547 268.766 73.0547 268.344C73.0547 268.047 73.0938 267.719 73.1719 267.359C73.2344 267 73.3281 266.633 73.4531 266.258C73.5781 265.883 73.7344 265.508 73.9219 265.133C74.125 264.758 74.3594 264.414 74.625 264.102C74.7188 263.836 74.8594 263.602 75.0469 263.398C75.25 263.195 75.4766 263.031 75.7266 262.906C75.9922 262.766 76.2734 262.664 76.5703 262.602C76.8672 262.523 77.1562 262.484 77.4375 262.484C77.4844 262.484 77.5234 262.492 77.5547 262.508C77.6016 262.523 77.6484 262.539 77.6953 262.555C77.8984 262.57 78.1484 262.648 78.4453 262.789C78.7578 262.93 79.0547 263.141 79.3359 263.422C79.6328 263.703 79.8828 264.062 80.0859 264.5C80.2891 264.922 80.3906 265.438 80.3906 266.047C80.3906 266.172 80.3828 266.328 80.3672 266.516C80.3516 266.688 80.3359 266.836 80.3203 266.961C80.6797 266.82 81.0547 266.648 81.4453 266.445C81.8359 266.242 82.2109 266.031 82.5703 265.812C82.9453 265.578 83.2891 265.344 83.6016 265.109C83.9141 264.875 84.1641 264.664 84.3516 264.477C84.5078 264.336 84.6406 264.258 84.75 264.242C84.8594 264.227 84.9375 264.258 84.9844 264.336C85.0312 264.414 85.0391 264.523 85.0078 264.664C84.9766 264.805 84.8906 264.961 84.75 265.133C84.6719 265.227 84.4688 265.414 84.1406 265.695C83.8281 265.977 83.4531 266.281 83.0156 266.609C82.5781 266.938 82.1016 267.258 81.5859 267.57C81.0703 267.883 80.5781 268.117 80.1094 268.273ZM76.1484 264.711C76.1016 264.852 76.0781 265 76.0781 265.156C76.0781 265.406 76.0938 265.672 76.125 265.953C76.1562 266.219 76.2344 266.461 76.3594 266.68C76.4844 266.898 76.6797 267.086 76.9453 267.242C77.2266 267.383 77.6094 267.453 78.0938 267.453C78.1719 267.453 78.25 267.453 78.3281 267.453C78.4062 267.438 78.4844 267.422 78.5625 267.406C78.6094 267.203 78.6484 267.023 78.6797 266.867C78.7266 266.695 78.75 266.547 78.75 266.422C78.7812 266.125 78.7812 265.82 78.75 265.508C78.7188 265.195 78.6562 264.914 78.5625 264.664C78.4844 264.398 78.375 264.188 78.2344 264.031C78.1094 263.859 77.9531 263.773 77.7656 263.773C77.4688 263.773 77.1797 263.859 76.8984 264.031C76.6328 264.188 76.3828 264.414 76.1484 264.711ZM74.6484 268.836C74.6484 269.117 74.6641 269.398 74.6953 269.68C74.7266 269.945 74.7891 270.188 74.8828 270.406C74.9766 270.609 75.1016 270.781 75.2578 270.922C75.4141 271.047 75.6172 271.109 75.8672 271.109C76.1484 271.109 76.4062 271.047 76.6406 270.922C76.875 270.781 77.0859 270.609 77.2734 270.406C77.4609 270.188 77.625 269.945 77.7656 269.68C77.9219 269.398 78.0547 269.109 78.1641 268.812C78.0547 268.828 77.9453 268.844 77.8359 268.859C77.7422 268.859 77.6328 268.859 77.5078 268.859C76.9141 268.859 76.3984 268.688 75.9609 268.344C75.5391 267.984 75.2109 267.531 74.9766 266.984C74.8828 267.312 74.8047 267.633 74.7422 267.945C74.6797 268.258 74.6484 268.555 74.6484 268.836ZM93.5391 270.922C93.5391 270.594 93.5703 270.219 93.6328 269.797C93.7109 269.375 93.8047 268.945 93.9141 268.508C94.0234 268.055 94.1328 267.617 94.2422 267.195C94.3516 266.773 94.4453 266.398 94.5234 266.07C94.6172 265.664 94.6094 265.352 94.5 265.133C94.3906 264.914 94.2031 264.805 93.9375 264.805C93.8125 264.805 93.5625 264.914 93.1875 265.133C92.8281 265.352 92.4297 265.734 91.9922 266.281C91.5703 266.812 91.1484 267.539 90.7266 268.461C90.3203 269.367 90 270.523 89.7656 271.93C89.4688 272.086 89.1875 272.188 88.9219 272.234C88.7812 272.266 88.6562 272.289 88.5469 272.305C88.2344 272.32 88.0312 272.266 87.9375 272.141C87.8438 272.031 87.8594 271.75 87.9844 271.297C88.0469 271.078 88.1562 270.727 88.3125 270.242C88.4844 269.758 88.6484 269.234 88.8047 268.672C88.9609 268.094 89.0938 267.523 89.2031 266.961C89.3281 266.383 89.3906 265.883 89.3906 265.461C89.3906 265.164 89.3359 264.961 89.2266 264.852C89.1328 264.742 88.9922 264.688 88.8047 264.688C88.6641 264.688 88.4297 264.766 88.1016 264.922C87.7734 265.078 87.4062 265.383 87 265.836C86.5938 266.289 86.1875 266.922 85.7812 267.734C85.3906 268.531 85.0547 269.57 84.7734 270.852V270.805C84.7422 270.93 84.7109 271.055 84.6797 271.18C84.6484 271.289 84.625 271.406 84.6094 271.531C84.5938 271.656 84.5703 271.773 84.5391 271.883L83.3672 272.398C83.2891 272.43 83.1875 272.453 83.0625 272.469C82.9531 272.484 82.8438 272.461 82.7344 272.398C82.6406 272.352 82.5703 272.242 82.5234 272.07C82.4766 271.898 82.4922 271.641 82.5703 271.297L84.0469 265.18C84.0938 264.977 84.1328 264.781 84.1641 264.594C84.1953 264.422 84.2109 264.258 84.2109 264.102C84.2266 263.93 84.2188 263.789 84.1875 263.68C84.4531 263.555 84.6875 263.461 84.8906 263.398C85.0938 263.336 85.2578 263.289 85.3828 263.258C85.5391 263.211 85.6719 263.188 85.7812 263.188C86.2812 263.188 86.4453 263.617 86.2734 264.477C86.2109 264.727 86.1172 265.094 85.9922 265.578C86.2891 265.203 86.6016 264.852 86.9297 264.523C87.2734 264.18 87.6172 263.875 87.9609 263.609C88.3047 263.344 88.6484 263.133 88.9922 262.977C89.3516 262.82 89.7031 262.742 90.0469 262.742C90.3125 262.742 90.5312 262.82 90.7031 262.977C90.8906 263.133 91.0312 263.344 91.125 263.609C91.2344 263.859 91.2969 264.164 91.3125 264.523C91.3281 264.867 91.3125 265.227 91.2656 265.602C91.5156 265.273 91.7891 264.945 92.0859 264.617C92.3984 264.273 92.7188 263.969 93.0469 263.703C93.3906 263.438 93.7422 263.219 94.1016 263.047C94.4609 262.875 94.8203 262.789 95.1797 262.789C95.6016 262.789 95.9219 262.914 96.1406 263.164C96.375 263.414 96.5312 263.734 96.6094 264.125C96.7031 264.516 96.7266 264.938 96.6797 265.391C96.6484 265.844 96.5859 266.281 96.4922 266.703L95.6953 269.867C95.5234 270.648 95.6875 271.039 96.1875 271.039C96.5781 271.039 97.0078 270.852 97.4766 270.477C97.9453 270.102 98.3984 269.656 98.8359 269.141C99.2891 268.625 99.7109 268.094 100.102 267.547C100.492 267 100.82 266.562 101.086 266.234C101.18 266.125 101.273 266.062 101.367 266.047C101.477 266.031 101.562 266.055 101.625 266.117C101.703 266.164 101.742 266.25 101.742 266.375C101.758 266.5 101.719 266.656 101.625 266.844C101.312 267.391 100.93 268 100.477 268.672C100.023 269.328 99.5234 269.945 98.9766 270.523C98.4453 271.102 97.875 271.586 97.2656 271.977C96.6562 272.367 96.0234 272.562 95.3672 272.562C95.1484 272.562 94.9297 272.539 94.7109 272.492C94.5078 272.445 94.3125 272.359 94.125 272.234C93.9531 272.109 93.8125 271.945 93.7031 271.742C93.5938 271.523 93.5391 271.25 93.5391 270.922ZM98.1562 282.008C98.0469 281.961 97.9375 281.891 97.8281 281.797C97.7344 281.719 97.6406 281.617 97.5469 281.492C97.4531 281.383 97.375 281.242 97.3125 281.07C97.75 279.398 98.125 277.945 98.4375 276.711C98.7344 275.477 98.9922 274.445 99.2109 273.617C99.4453 272.648 99.6484 271.836 99.8203 271.18C99.9766 270.555 100.133 269.93 100.289 269.305C100.414 268.758 100.547 268.172 100.688 267.547C100.844 266.922 100.984 266.336 101.109 265.789C101.266 265.18 101.359 264.695 101.391 264.336C101.422 263.961 101.305 263.641 101.039 263.375C101.227 263.219 101.414 263.102 101.602 263.023C101.805 262.93 101.984 262.867 102.141 262.836C102.312 262.789 102.484 262.773 102.656 262.789C103.078 262.82 103.336 262.953 103.43 263.188C103.539 263.422 103.555 263.797 103.477 264.312C103.461 264.391 103.445 264.461 103.43 264.523C103.43 264.57 103.43 264.625 103.43 264.688C103.648 264.438 103.891 264.195 104.156 263.961C104.422 263.727 104.688 263.516 104.953 263.328C105.234 263.141 105.516 262.992 105.797 262.883C106.094 262.758 106.375 262.695 106.641 262.695C107 262.695 107.289 262.789 107.508 262.977C107.742 263.148 107.922 263.383 108.047 263.68C108.172 263.977 108.25 264.312 108.281 264.688C108.312 265.047 108.32 265.406 108.305 265.766C108.289 266.156 108.219 266.57 108.094 267.008C107.984 267.445 107.828 267.891 107.625 268.344C107.422 268.797 107.188 269.242 106.922 269.68C106.656 270.117 106.375 270.523 106.078 270.898C106.141 270.914 106.18 270.93 106.195 270.945C106.211 270.945 106.219 270.953 106.219 270.969C106.219 270.969 106.227 270.977 106.242 270.992C106.273 270.992 106.328 270.992 106.406 270.992C106.766 270.992 107.133 270.898 107.508 270.711C107.883 270.523 108.25 270.289 108.609 270.008C108.969 269.711 109.312 269.391 109.641 269.047C109.984 268.703 110.289 268.375 110.555 268.062C110.836 267.734 111.07 267.445 111.258 267.195C111.445 266.93 111.586 266.742 111.68 266.633C111.805 266.477 111.922 266.375 112.031 266.328C112.141 266.266 112.227 266.258 112.289 266.305C112.352 266.352 112.383 266.445 112.383 266.586C112.383 266.711 112.336 266.875 112.242 267.078C112.18 267.219 112.047 267.445 111.844 267.758C111.641 268.07 111.391 268.422 111.094 268.812C110.797 269.203 110.453 269.609 110.062 270.031C109.688 270.453 109.289 270.836 108.867 271.18C108.445 271.523 108.008 271.805 107.555 272.023C107.117 272.258 106.688 272.375 106.266 272.375C106.062 272.375 105.898 272.367 105.773 272.352C105.648 272.336 105.539 272.305 105.445 272.258C105.367 272.227 105.289 272.188 105.211 272.141C105.133 272.109 105.039 272.07 104.93 272.023C104.648 272.242 104.359 272.406 104.062 272.516C103.766 272.641 103.477 272.703 103.195 272.703C102.93 272.703 102.695 272.656 102.492 272.562C102.305 272.484 102.148 272.367 102.023 272.211C101.898 272.07 101.797 271.914 101.719 271.742C101.641 271.555 101.578 271.375 101.531 271.203C101.516 271.266 101.5 271.32 101.484 271.367C101.484 271.414 101.477 271.477 101.461 271.555C101.273 272.305 101.078 273.172 100.875 274.156C100.703 275 100.492 276.023 100.242 277.227C100.008 278.445 99.7578 279.828 99.4922 281.375C99.3984 281.797 99.2344 282.039 99 282.102C98.75 282.164 98.4688 282.133 98.1562 282.008ZM102.445 267.477C102.367 267.742 102.281 268.055 102.188 268.414C102.109 268.758 102.016 269.172 101.906 269.656C102.031 269.562 102.172 269.492 102.328 269.445C102.484 269.398 102.641 269.375 102.797 269.375C102.969 269.375 103.188 269.469 103.453 269.656C103.719 269.828 104.039 270.016 104.414 270.219C104.648 269.938 104.891 269.625 105.141 269.281C105.406 268.922 105.641 268.555 105.844 268.18C106.062 267.805 106.242 267.422 106.383 267.031C106.539 266.641 106.625 266.266 106.641 265.906C106.672 265.438 106.617 265.07 106.477 264.805C106.336 264.539 106.102 264.406 105.773 264.406C105.289 264.406 104.758 264.695 104.18 265.273C103.617 265.836 103.039 266.57 102.445 267.477ZM113.578 272.375C112.984 272.375 112.5 272.281 112.125 272.094C111.75 271.906 111.453 271.68 111.234 271.414C111.031 271.133 110.883 270.836 110.789 270.523C110.711 270.195 110.672 269.898 110.672 269.633C110.672 269.164 110.711 268.672 110.789 268.156C110.867 267.625 110.961 267.141 111.07 266.703C111.18 266.25 111.273 265.867 111.352 265.555C111.445 265.242 111.508 265.047 111.539 264.969C111.68 264.516 111.859 264.125 112.078 263.797C112.312 263.453 112.633 263.219 113.039 263.094C113.195 263.062 113.359 263.031 113.531 263C113.672 262.984 113.812 262.977 113.953 262.977C114.109 262.977 114.25 263 114.375 263.047C113.953 264.125 113.617 265.023 113.367 265.742C113.133 266.461 112.953 267.047 112.828 267.5C112.688 268.016 112.602 268.43 112.57 268.742C112.492 269.445 112.555 269.977 112.758 270.336C112.961 270.695 113.375 270.875 114 270.875C114.406 270.875 114.797 270.727 115.172 270.43C115.547 270.117 115.891 269.719 116.203 269.234C116.156 268.984 116.133 268.727 116.133 268.461C116.133 267.961 116.172 267.477 116.25 267.008C116.344 266.523 116.445 266.078 116.555 265.672C116.68 265.25 116.805 264.875 116.93 264.547C117.07 264.219 117.188 263.961 117.281 263.773C117.453 263.398 117.609 263.172 117.75 263.094C117.891 263 118.117 262.945 118.43 262.93C118.555 262.914 118.656 262.914 118.734 262.93C118.828 262.93 118.906 262.938 118.969 262.953C119.156 263 119.25 263.094 119.25 263.234C119.25 263.484 119.234 263.859 119.203 264.359C119.172 264.859 119.078 265.375 118.922 265.906C118.812 266.344 118.703 266.719 118.594 267.031C118.5 267.328 118.406 267.586 118.312 267.805C118.219 268.008 118.125 268.18 118.031 268.32C117.938 268.445 117.852 268.562 117.773 268.672C117.805 269.141 117.844 269.516 117.891 269.797C117.938 270.078 117.992 270.297 118.055 270.453C118.133 270.594 118.219 270.695 118.312 270.758C118.422 270.805 118.539 270.828 118.664 270.828C118.883 270.828 119.141 270.727 119.438 270.523C119.734 270.305 120.039 270.039 120.352 269.727C120.68 269.398 121 269.047 121.312 268.672C121.641 268.281 121.938 267.914 122.203 267.57C122.469 267.227 122.695 266.93 122.883 266.68C123.07 266.414 123.188 266.25 123.234 266.188C123.344 266.047 123.445 265.961 123.539 265.93C123.648 265.898 123.734 265.914 123.797 265.977C123.859 266.023 123.891 266.109 123.891 266.234C123.906 266.344 123.875 266.469 123.797 266.609C123.484 267.203 123.094 267.836 122.625 268.508C122.172 269.164 121.68 269.773 121.148 270.336C120.633 270.898 120.109 271.367 119.578 271.742C119.047 272.117 118.547 272.305 118.078 272.305C117.656 272.305 117.32 272.164 117.07 271.883C116.836 271.586 116.633 271.164 116.461 270.617C116.102 271.18 115.68 271.617 115.195 271.93C114.711 272.227 114.172 272.375 113.578 272.375ZM130.57 266.07C130.633 265.977 130.711 265.922 130.805 265.906C130.914 265.875 131 265.883 131.062 265.93C131.125 265.977 131.156 266.055 131.156 266.164C131.172 266.273 131.133 266.422 131.039 266.609C130.727 267.203 130.312 267.844 129.797 268.531C129.297 269.219 128.766 269.867 128.203 270.477C127.641 271.07 127.094 271.562 126.562 271.953C126.031 272.344 125.586 272.539 125.227 272.539C124.711 272.539 124.281 272.438 123.938 272.234C123.594 272.031 123.32 271.781 123.117 271.484C122.93 271.188 122.797 270.867 122.719 270.523C122.641 270.164 122.617 269.836 122.648 269.539C122.664 269.289 122.719 268.844 122.812 268.203C122.906 267.547 123.031 266.797 123.188 265.953C123.344 265.094 123.516 264.18 123.703 263.211C123.906 262.227 124.117 261.281 124.336 260.375C124.07 260.406 123.805 260.438 123.539 260.469C123.273 260.5 123.031 260.516 122.812 260.516C122.312 260.516 121.844 260.461 121.406 260.352C120.953 260.227 120.617 260.109 120.398 260C120.273 259.938 120.219 259.852 120.234 259.742C120.25 259.617 120.297 259.5 120.375 259.391C120.453 259.266 120.555 259.164 120.68 259.086C120.789 258.992 120.891 258.945 120.984 258.945C121.281 258.977 121.602 259.008 121.945 259.039C122.289 259.055 122.664 259.055 123.07 259.039C123.367 259.023 123.648 259 123.914 258.969C124.195 258.938 124.469 258.898 124.734 258.852C124.938 258.102 125.133 257.453 125.32 256.906C125.523 256.344 125.703 255.953 125.859 255.734C125.906 255.656 126.008 255.594 126.164 255.547C126.336 255.484 126.516 255.445 126.703 255.43C126.891 255.398 127.07 255.398 127.242 255.43C127.414 255.445 127.539 255.5 127.617 255.594C127.695 255.719 127.727 256.039 127.711 256.555C127.695 257.07 127.609 257.727 127.453 258.523C128.109 258.523 128.688 258.562 129.188 258.641C129.703 258.703 130.141 258.781 130.5 258.875C130.859 258.953 131.148 259.039 131.367 259.133C131.586 259.211 131.75 259.266 131.859 259.297C131.969 259.328 132.023 259.406 132.023 259.531C132.039 259.656 132.016 259.789 131.953 259.93C131.906 260.055 131.82 260.164 131.695 260.258C131.57 260.352 131.43 260.383 131.273 260.352C131.117 260.336 130.938 260.305 130.734 260.258C130.547 260.211 130.312 260.172 130.031 260.141C129.766 260.109 129.445 260.078 129.07 260.047C128.695 260.016 128.258 260 127.758 260C127.664 260 127.555 260.008 127.43 260.023C127.32 260.023 127.203 260.023 127.078 260.023C127.016 260.273 126.953 260.523 126.891 260.773C126.844 261.008 126.773 261.258 126.68 261.523C126.477 262.148 126.242 262.828 125.977 263.562C125.742 264.203 125.461 264.938 125.133 265.766C124.805 266.594 124.438 267.477 124.031 268.414C123.938 269.086 123.945 269.602 124.055 269.961C124.18 270.305 124.328 270.555 124.5 270.711C124.703 270.883 124.953 270.977 125.25 270.992C125.484 271.023 125.766 270.945 126.094 270.758C126.438 270.555 126.789 270.289 127.148 269.961C127.508 269.633 127.867 269.273 128.227 268.883C128.602 268.492 128.945 268.109 129.258 267.734C129.57 267.359 129.844 267.023 130.078 266.727C130.312 266.414 130.477 266.195 130.57 266.07ZM139.781 267.125C139.312 267.812 138.781 268.484 138.188 269.141C137.594 269.781 136.961 270.359 136.289 270.875C135.633 271.375 134.953 271.781 134.25 272.094C133.562 272.406 132.891 272.562 132.234 272.562C131.891 272.562 131.516 272.477 131.109 272.305C130.719 272.148 130.359 271.898 130.031 271.555C129.703 271.211 129.438 270.766 129.234 270.219C129.047 269.672 128.992 269.008 129.07 268.227C129.133 267.586 129.328 266.914 129.656 266.211C130 265.492 130.414 264.836 130.898 264.242C131.398 263.648 131.953 263.156 132.562 262.766C133.188 262.375 133.812 262.18 134.438 262.18C135.031 262.18 135.461 262.328 135.727 262.625C135.992 262.922 136.109 263.289 136.078 263.727C136.031 264.211 135.891 264.656 135.656 265.062C135.438 265.469 135.172 265.836 134.859 266.164C134.547 266.492 134.211 266.789 133.852 267.055C133.508 267.32 133.18 267.562 132.867 267.781C132.523 268.016 132.195 268.242 131.883 268.461C131.57 268.664 131.297 268.852 131.062 269.023C131.078 269.414 131.148 269.742 131.273 270.008C131.398 270.273 131.555 270.492 131.742 270.664C131.93 270.82 132.141 270.938 132.375 271.016C132.625 271.078 132.875 271.109 133.125 271.109C133.656 271.109 134.211 270.945 134.789 270.617C135.367 270.273 135.93 269.867 136.477 269.398C137.039 268.914 137.555 268.414 138.023 267.898C138.508 267.383 138.906 266.938 139.219 266.562C139.328 266.438 139.438 266.367 139.547 266.352C139.672 266.32 139.766 266.336 139.828 266.398C139.906 266.445 139.945 266.539 139.945 266.68C139.945 266.805 139.891 266.953 139.781 267.125ZM133.781 263.516C133.594 263.516 133.367 263.609 133.102 263.797C132.852 263.984 132.602 264.258 132.352 264.617C132.102 264.961 131.867 265.391 131.648 265.906C131.43 266.406 131.266 266.984 131.156 267.641C131.344 267.5 131.547 267.359 131.766 267.219C131.984 267.062 132.203 266.898 132.422 266.727C133.094 266.211 133.562 265.758 133.828 265.367C134.094 264.977 134.242 264.641 134.273 264.359C134.305 264.062 134.273 263.852 134.18 263.727C134.086 263.586 133.953 263.516 133.781 263.516ZM137.203 271.883C137.094 272.055 136.977 272.164 136.852 272.211C136.711 272.273 136.594 272.281 136.5 272.234C136.391 272.203 136.32 272.125 136.289 272C136.258 271.875 136.289 271.719 136.383 271.531C136.43 271.438 136.539 271.227 136.711 270.898C136.867 270.57 137.062 270.18 137.297 269.727C137.516 269.258 137.758 268.758 138.023 268.227C138.289 267.68 138.539 267.164 138.773 266.68C139.023 266.195 139.25 265.766 139.453 265.391C139.656 265 139.805 264.719 139.898 264.547C139.727 264.391 139.609 264.281 139.547 264.219C139.484 264.141 139.438 263.984 139.406 263.75C139.375 263.547 139.422 263.281 139.547 262.953C139.672 262.625 139.836 262.312 140.039 262.016C140.242 261.703 140.469 261.438 140.719 261.219C140.969 261 141.211 260.891 141.445 260.891C141.883 260.891 142.188 261.031 142.359 261.312C142.547 261.594 142.656 261.883 142.688 262.18C142.719 262.383 142.703 262.641 142.641 262.953C142.578 263.266 142.461 263.547 142.289 263.797C142.336 263.828 142.398 263.867 142.477 263.914C142.555 263.945 142.68 263.961 142.852 263.961C143.102 263.961 143.273 263.945 143.367 263.914C143.477 263.883 143.641 263.867 143.859 263.867C144.125 263.867 144.344 263.938 144.516 264.078C144.688 264.203 144.828 264.367 144.938 264.57C145.047 264.758 145.125 264.969 145.172 265.203C145.234 265.422 145.273 265.625 145.289 265.812C145.336 266.203 145.234 266.609 144.984 267.031C144.734 267.453 144.43 267.914 144.07 268.414C143.852 268.727 143.633 269.078 143.414 269.469C143.195 269.859 143.102 270.211 143.133 270.523C143.164 270.727 143.219 270.891 143.297 271.016C143.375 271.141 143.594 271.203 143.953 271.203C144.219 271.203 144.508 271.109 144.82 270.922C145.148 270.719 145.477 270.469 145.805 270.172C146.148 269.859 146.484 269.523 146.812 269.164C147.141 268.789 147.445 268.43 147.727 268.086C148.008 267.727 148.242 267.406 148.43 267.125C148.633 266.844 148.781 266.641 148.875 266.516C148.953 266.391 149.055 266.305 149.18 266.258C149.305 266.211 149.414 266.211 149.508 266.258C149.602 266.305 149.656 266.398 149.672 266.539C149.703 266.68 149.648 266.867 149.508 267.102C149.414 267.258 149.25 267.508 149.016 267.852C148.797 268.195 148.523 268.578 148.195 269C147.883 269.422 147.531 269.859 147.141 270.312C146.75 270.75 146.336 271.156 145.898 271.531C145.477 271.891 145.047 272.188 144.609 272.422C144.188 272.656 143.781 272.773 143.391 272.773C142.984 272.773 142.648 272.695 142.383 272.539C142.117 272.383 141.898 272.195 141.727 271.977C141.57 271.742 141.453 271.492 141.375 271.227C141.312 270.945 141.289 270.688 141.305 270.453C141.32 270.266 141.367 270.07 141.445 269.867C141.539 269.648 141.641 269.43 141.75 269.211C141.875 268.977 142 268.75 142.125 268.531C142.266 268.297 142.391 268.07 142.5 267.852C142.766 267.398 142.977 267.016 143.133 266.703C143.305 266.375 143.391 266.102 143.391 265.883C143.391 265.742 143.359 265.617 143.297 265.508C143.234 265.398 143.133 265.344 142.992 265.344C142.898 265.344 142.828 265.352 142.781 265.367C142.75 265.367 142.711 265.367 142.664 265.367C142.633 265.367 142.578 265.375 142.5 265.391C142.438 265.391 142.336 265.391 142.195 265.391C141.992 265.391 141.82 265.359 141.68 265.297C141.539 265.234 141.406 265.188 141.281 265.156C141.219 265.266 141.078 265.5 140.859 265.859C140.641 266.219 140.383 266.641 140.086 267.125C139.805 267.609 139.5 268.117 139.172 268.648C138.859 269.18 138.562 269.68 138.281 270.148C138 270.602 137.766 270.992 137.578 271.32C137.375 271.633 137.25 271.82 137.203 271.883Z" fill="white"/>
<path d="M236.219 266.938C236.406 266.906 236.594 266.875 236.781 266.844C236.969 266.797 237.172 266.742 237.391 266.68C237.125 266.43 236.773 266.273 236.336 266.211C236.289 266.461 236.25 266.703 236.219 266.938ZM245.805 259.695C245.742 260.367 245.562 261.07 245.266 261.805C244.984 262.539 244.586 263.25 244.07 263.938C243.555 264.625 242.93 265.266 242.195 265.859C241.461 266.453 240.625 266.938 239.688 267.312C239.828 267.578 239.961 267.859 240.086 268.156C240.211 268.453 240.32 268.789 240.414 269.164C240.555 269.664 240.672 270.18 240.766 270.711C240.875 271.242 240.961 271.758 241.023 272.258C241.102 272.758 241.164 273.219 241.211 273.641C241.273 274.078 241.32 274.438 241.352 274.719C241.414 275.188 241.562 275.516 241.797 275.703C242.047 275.906 242.32 276.016 242.617 276.031C242.93 276.062 243.234 276.031 243.531 275.938C243.844 275.844 244.086 275.742 244.258 275.633C244.242 275.648 244.156 275.781 244 276.031C243.844 276.297 243.633 276.57 243.367 276.852C243.102 277.148 242.781 277.398 242.406 277.602C242.047 277.82 241.641 277.891 241.188 277.812C240.875 277.766 240.594 277.656 240.344 277.484C240.109 277.328 239.898 277.086 239.711 276.758C239.539 276.445 239.398 276.039 239.289 275.539C239.18 275.039 239.109 274.43 239.078 273.711C239.047 272.742 239.008 271.82 238.961 270.945C238.93 270.055 238.766 269.234 238.469 268.484C238.422 268.359 238.375 268.242 238.328 268.133C238.281 268.008 238.227 267.898 238.164 267.805C237.523 267.961 236.805 268.062 236.008 268.109C235.898 268.703 235.781 269.312 235.656 269.938C235.531 270.562 235.398 271.172 235.258 271.766C235.133 272.359 234.992 272.914 234.836 273.43C234.695 273.961 234.555 274.414 234.414 274.789C234.258 275.18 234.055 275.492 233.805 275.727C233.57 275.977 233.188 276.102 232.656 276.102C232.344 276.102 232.07 276.031 231.836 275.891C231.602 275.75 231.375 275.555 231.156 275.305C231.219 275.258 231.32 275.18 231.461 275.07C231.586 274.977 231.742 274.773 231.93 274.461C232.102 274.164 232.289 273.734 232.492 273.172C232.711 272.609 232.93 271.852 233.148 270.898C233.227 270.508 233.328 270.055 233.453 269.539C233.594 269.008 233.742 268.43 233.898 267.805C233.273 267.461 232.984 267 233.031 266.422C233.062 266.062 233.227 265.758 233.523 265.508C233.82 265.258 234.18 265.086 234.602 264.992C234.805 264.18 235.008 263.359 235.211 262.531C235.43 261.703 235.633 260.93 235.82 260.211C236.008 259.477 236.18 258.82 236.336 258.242C236.492 257.648 236.617 257.18 236.711 256.836C236.43 257.023 236.148 257.234 235.867 257.469C235.617 257.672 235.344 257.906 235.047 258.172C234.766 258.422 234.5 258.688 234.25 258.969C234.125 258.875 234.023 258.773 233.945 258.664C233.867 258.555 233.805 258.461 233.758 258.383C233.695 258.289 233.648 258.188 233.617 258.078C233.508 257.859 233.453 257.625 233.453 257.375C233.453 257.109 233.641 256.844 234.016 256.578C234.219 256.438 234.523 256.234 234.93 255.969C235.352 255.703 235.867 255.445 236.477 255.195C237.086 254.945 237.789 254.727 238.586 254.539C239.398 254.352 240.297 254.258 241.281 254.258C242.266 254.258 243.062 254.453 243.672 254.844C244.281 255.234 244.75 255.711 245.078 256.273C245.406 256.836 245.617 257.43 245.711 258.055C245.82 258.68 245.852 259.227 245.805 259.695ZM238.727 266.141C239.273 265.875 239.812 265.547 240.344 265.156C240.891 264.766 241.383 264.297 241.82 263.75C242.258 263.203 242.625 262.586 242.922 261.898C243.219 261.195 243.406 260.406 243.484 259.531C243.547 258.75 243.492 258.102 243.32 257.586C243.164 257.055 242.922 256.633 242.594 256.32C242.281 256.008 241.922 255.789 241.516 255.664C241.109 255.523 240.703 255.453 240.297 255.453C239.922 255.453 239.539 255.508 239.148 255.617C238.773 255.727 238.406 255.867 238.047 256.039C238.094 256.055 238.148 256.094 238.211 256.156C238.242 256.203 238.273 256.266 238.305 256.344C238.352 256.406 238.383 256.477 238.398 256.555C238.039 258.07 237.75 259.336 237.531 260.352C237.312 261.367 237.133 262.195 236.992 262.836C236.82 263.586 236.695 264.188 236.617 264.641C236.602 264.703 236.586 264.766 236.57 264.828C236.57 264.891 236.562 264.961 236.547 265.039C236.891 265.117 237.25 265.242 237.625 265.414C238 265.57 238.367 265.812 238.727 266.141ZM256.07 267.125C255.602 267.812 255.07 268.484 254.477 269.141C253.883 269.781 253.25 270.359 252.578 270.875C251.922 271.375 251.242 271.781 250.539 272.094C249.852 272.406 249.18 272.562 248.523 272.562C248.18 272.562 247.805 272.477 247.398 272.305C247.008 272.148 246.648 271.898 246.32 271.555C245.992 271.211 245.727 270.766 245.523 270.219C245.336 269.672 245.281 269.008 245.359 268.227C245.422 267.586 245.617 266.914 245.945 266.211C246.289 265.492 246.703 264.836 247.188 264.242C247.688 263.648 248.242 263.156 248.852 262.766C249.477 262.375 250.102 262.18 250.727 262.18C251.32 262.18 251.75 262.328 252.016 262.625C252.281 262.922 252.398 263.289 252.367 263.727C252.32 264.211 252.18 264.656 251.945 265.062C251.727 265.469 251.461 265.836 251.148 266.164C250.836 266.492 250.5 266.789 250.141 267.055C249.797 267.32 249.469 267.562 249.156 267.781C248.812 268.016 248.484 268.242 248.172 268.461C247.859 268.664 247.586 268.852 247.352 269.023C247.367 269.414 247.438 269.742 247.562 270.008C247.688 270.273 247.844 270.492 248.031 270.664C248.219 270.82 248.43 270.938 248.664 271.016C248.914 271.078 249.164 271.109 249.414 271.109C249.945 271.109 250.5 270.945 251.078 270.617C251.656 270.273 252.219 269.867 252.766 269.398C253.328 268.914 253.844 268.414 254.312 267.898C254.797 267.383 255.195 266.938 255.508 266.562C255.617 266.438 255.727 266.367 255.836 266.352C255.961 266.32 256.055 266.336 256.117 266.398C256.195 266.445 256.234 266.539 256.234 266.68C256.234 266.805 256.18 266.953 256.07 267.125ZM250.07 263.516C249.883 263.516 249.656 263.609 249.391 263.797C249.141 263.984 248.891 264.258 248.641 264.617C248.391 264.961 248.156 265.391 247.938 265.906C247.719 266.406 247.555 266.984 247.445 267.641C247.633 267.5 247.836 267.359 248.055 267.219C248.273 267.062 248.492 266.898 248.711 266.727C249.383 266.211 249.852 265.758 250.117 265.367C250.383 264.977 250.531 264.641 250.562 264.359C250.594 264.062 250.562 263.852 250.469 263.727C250.375 263.586 250.242 263.516 250.07 263.516ZM252.695 282.008C252.586 281.961 252.477 281.891 252.367 281.797C252.273 281.719 252.18 281.617 252.086 281.492C251.992 281.383 251.914 281.242 251.852 281.07C252.289 279.398 252.664 277.945 252.977 276.711C253.273 275.477 253.531 274.445 253.75 273.617C253.984 272.648 254.188 271.836 254.359 271.18C254.516 270.555 254.672 269.93 254.828 269.305C254.953 268.758 255.086 268.172 255.227 267.547C255.383 266.922 255.523 266.336 255.648 265.789C255.805 265.18 255.898 264.695 255.93 264.336C255.961 263.961 255.844 263.641 255.578 263.375C255.766 263.219 255.953 263.102 256.141 263.023C256.344 262.93 256.523 262.867 256.68 262.836C256.852 262.789 257.023 262.773 257.195 262.789C257.617 262.82 257.875 262.953 257.969 263.188C258.078 263.422 258.094 263.797 258.016 264.312C258 264.391 257.984 264.461 257.969 264.523C257.969 264.57 257.969 264.625 257.969 264.688C258.188 264.438 258.43 264.195 258.695 263.961C258.961 263.727 259.227 263.516 259.492 263.328C259.773 263.141 260.055 262.992 260.336 262.883C260.633 262.758 260.914 262.695 261.18 262.695C261.539 262.695 261.828 262.789 262.047 262.977C262.281 263.148 262.461 263.383 262.586 263.68C262.711 263.977 262.789 264.312 262.82 264.688C262.852 265.047 262.859 265.406 262.844 265.766C262.828 266.156 262.758 266.57 262.633 267.008C262.523 267.445 262.367 267.891 262.164 268.344C261.961 268.797 261.727 269.242 261.461 269.68C261.195 270.117 260.914 270.523 260.617 270.898C260.68 270.914 260.719 270.93 260.734 270.945C260.75 270.945 260.758 270.953 260.758 270.969C260.758 270.969 260.766 270.977 260.781 270.992C260.812 270.992 260.867 270.992 260.945 270.992C261.305 270.992 261.672 270.898 262.047 270.711C262.422 270.523 262.789 270.289 263.148 270.008C263.508 269.711 263.852 269.391 264.18 269.047C264.523 268.703 264.828 268.375 265.094 268.062C265.375 267.734 265.609 267.445 265.797 267.195C265.984 266.93 266.125 266.742 266.219 266.633C266.344 266.477 266.461 266.375 266.57 266.328C266.68 266.266 266.766 266.258 266.828 266.305C266.891 266.352 266.922 266.445 266.922 266.586C266.922 266.711 266.875 266.875 266.781 267.078C266.719 267.219 266.586 267.445 266.383 267.758C266.18 268.07 265.93 268.422 265.633 268.812C265.336 269.203 264.992 269.609 264.602 270.031C264.227 270.453 263.828 270.836 263.406 271.18C262.984 271.523 262.547 271.805 262.094 272.023C261.656 272.258 261.227 272.375 260.805 272.375C260.602 272.375 260.438 272.367 260.312 272.352C260.188 272.336 260.078 272.305 259.984 272.258C259.906 272.227 259.828 272.188 259.75 272.141C259.672 272.109 259.578 272.07 259.469 272.023C259.188 272.242 258.898 272.406 258.602 272.516C258.305 272.641 258.016 272.703 257.734 272.703C257.469 272.703 257.234 272.656 257.031 272.562C256.844 272.484 256.688 272.367 256.562 272.211C256.438 272.07 256.336 271.914 256.258 271.742C256.18 271.555 256.117 271.375 256.07 271.203C256.055 271.266 256.039 271.32 256.023 271.367C256.023 271.414 256.016 271.477 256 271.555C255.812 272.305 255.617 273.172 255.414 274.156C255.242 275 255.031 276.023 254.781 277.227C254.547 278.445 254.297 279.828 254.031 281.375C253.938 281.797 253.773 282.039 253.539 282.102C253.289 282.164 253.008 282.133 252.695 282.008ZM256.984 267.477C256.906 267.742 256.82 268.055 256.727 268.414C256.648 268.758 256.555 269.172 256.445 269.656C256.57 269.562 256.711 269.492 256.867 269.445C257.023 269.398 257.18 269.375 257.336 269.375C257.508 269.375 257.727 269.469 257.992 269.656C258.258 269.828 258.578 270.016 258.953 270.219C259.188 269.938 259.43 269.625 259.68 269.281C259.945 268.922 260.18 268.555 260.383 268.18C260.602 267.805 260.781 267.422 260.922 267.031C261.078 266.641 261.164 266.266 261.18 265.906C261.211 265.438 261.156 265.07 261.016 264.805C260.875 264.539 260.641 264.406 260.312 264.406C259.828 264.406 259.297 264.695 258.719 265.273C258.156 265.836 257.578 266.57 256.984 267.477ZM277.234 267.336C277.016 267.648 276.734 268.039 276.391 268.508C276.047 268.961 275.688 269.422 275.312 269.891C274.953 270.344 274.594 270.766 274.234 271.156C273.891 271.531 273.602 271.797 273.367 271.953C273.211 272.047 273.031 272.125 272.828 272.188C272.625 272.25 272.414 272.289 272.195 272.305C271.992 272.32 271.797 272.305 271.609 272.258C271.422 272.227 271.258 272.164 271.117 272.07C270.977 271.961 270.859 271.805 270.766 271.602C270.688 271.43 270.609 271.203 270.531 270.922C270.469 270.641 270.445 270.289 270.461 269.867C270.086 270.492 269.672 270.977 269.219 271.32C268.766 271.648 268.336 271.891 267.93 272.047C267.461 272.219 266.992 272.32 266.523 272.352C266.305 272.352 266.07 272.273 265.82 272.117C265.57 271.977 265.359 271.75 265.188 271.438C265.016 271.109 264.906 270.695 264.859 270.195C264.812 269.68 264.875 269.07 265.047 268.367C265.266 267.414 265.609 266.547 266.078 265.766C266.562 264.984 267.086 264.32 267.648 263.773C268.211 263.211 268.766 262.789 269.312 262.508C269.859 262.227 270.312 262.102 270.672 262.133C271.094 262.211 271.438 262.336 271.703 262.508C271.922 262.664 272.062 262.898 272.125 263.211C272.203 263.508 272.078 263.906 271.75 264.406C271.969 264.359 272.148 264.328 272.289 264.312C272.445 264.297 272.562 264.289 272.641 264.289C272.734 264.289 272.797 264.297 272.828 264.312C272.844 264.344 272.852 264.414 272.852 264.523C272.852 264.617 272.828 264.797 272.781 265.062C272.734 265.328 272.664 265.688 272.57 266.141C272.477 266.594 272.352 267.18 272.195 267.898C272.164 268.039 272.133 268.172 272.102 268.297C272.086 268.406 272.062 268.523 272.031 268.648C272.016 268.758 271.992 268.891 271.961 269.047C271.93 269.203 271.891 269.398 271.844 269.633C271.828 269.773 271.82 269.93 271.82 270.102C271.836 270.258 271.867 270.406 271.914 270.547C271.961 270.688 272.031 270.805 272.125 270.898C272.234 270.977 272.383 271.016 272.57 271.016C272.727 271.016 272.93 270.922 273.18 270.734C273.43 270.531 273.695 270.281 273.977 269.984C274.258 269.672 274.547 269.336 274.844 268.977C275.156 268.602 275.445 268.242 275.711 267.898C275.977 267.555 276.211 267.25 276.414 266.984C276.633 266.719 276.789 266.523 276.883 266.398C277.008 266.258 277.133 266.18 277.258 266.164C277.383 266.133 277.477 266.164 277.539 266.258C277.602 266.352 277.609 266.492 277.562 266.68C277.531 266.867 277.422 267.086 277.234 267.336ZM270.367 268.367C270.445 268.055 270.539 267.688 270.648 267.266C270.758 266.844 270.852 266.438 270.93 266.047C271.008 265.656 271.062 265.336 271.094 265.086C271.141 264.82 271.133 264.695 271.07 264.711C270.992 264.727 270.906 264.75 270.812 264.781C270.734 264.812 270.633 264.836 270.508 264.852C270.383 264.867 270.258 264.891 270.133 264.922C270.258 264.672 270.328 264.469 270.344 264.312C270.375 264.141 270.383 264.008 270.367 263.914C270.352 263.805 270.32 263.719 270.273 263.656C270.102 263.516 269.797 263.633 269.359 264.008C268.938 264.367 268.445 265.039 267.883 266.023C267.648 266.43 267.461 266.867 267.32 267.336C267.18 267.789 267.078 268.219 267.016 268.625C266.969 269.031 266.961 269.391 266.992 269.703C267.023 270 267.086 270.195 267.18 270.289C267.352 270.461 267.547 270.547 267.766 270.547C267.984 270.531 268.203 270.469 268.422 270.359C268.656 270.234 268.883 270.078 269.102 269.891C269.336 269.703 269.539 269.508 269.711 269.305C269.898 269.102 270.047 268.914 270.156 268.742C270.281 268.57 270.352 268.445 270.367 268.367ZM280.82 258.195C280.773 258.367 280.68 258.539 280.539 258.711C280.414 258.867 280.266 259 280.094 259.109C279.938 259.203 279.773 259.266 279.602 259.297C279.43 259.328 279.289 259.297 279.18 259.203C278.852 258.953 278.68 258.688 278.664 258.406C278.648 258.109 278.719 257.836 278.875 257.586C279.031 257.32 279.227 257.102 279.461 256.93C279.695 256.742 279.898 256.633 280.07 256.602C280.242 256.57 280.383 256.609 280.492 256.719C280.617 256.812 280.711 256.945 280.773 257.117C280.836 257.273 280.867 257.453 280.867 257.656C280.883 257.859 280.867 258.039 280.82 258.195ZM277.586 263.188C277.664 263.094 277.812 263.016 278.031 262.953C278.25 262.891 278.477 262.844 278.711 262.812C278.945 262.766 279.156 262.742 279.344 262.742C279.547 262.727 279.664 262.727 279.695 262.742C279.711 262.758 279.672 262.922 279.578 263.234C279.484 263.547 279.367 263.914 279.227 264.336C279.086 264.758 278.938 265.195 278.781 265.648C278.625 266.086 278.508 266.445 278.43 266.727C278.352 267.008 278.258 267.328 278.148 267.688C278.039 268.031 277.938 268.375 277.844 268.719C277.766 269.047 277.711 269.359 277.68 269.656C277.648 269.953 277.672 270.18 277.75 270.336C277.828 270.523 277.914 270.656 278.008 270.734C278.102 270.797 278.203 270.828 278.312 270.828C278.625 270.828 279.016 270.656 279.484 270.312C279.969 269.969 280.453 269.562 280.938 269.094C281.438 268.609 281.898 268.125 282.32 267.641C282.742 267.141 283.055 266.742 283.258 266.445C283.383 266.289 283.508 266.188 283.633 266.141C283.773 266.094 283.883 266.102 283.961 266.164C284.055 266.227 284.102 266.328 284.102 266.469C284.117 266.609 284.07 266.773 283.961 266.961C283.711 267.398 283.344 267.922 282.859 268.531C282.375 269.125 281.859 269.703 281.312 270.266C280.766 270.812 280.227 271.281 279.695 271.672C279.18 272.062 278.758 272.266 278.43 272.281C278.164 272.297 277.898 272.25 277.633 272.141C277.383 272.047 277.148 271.914 276.93 271.742C276.727 271.555 276.555 271.344 276.414 271.109C276.273 270.859 276.195 270.602 276.18 270.336C276.133 269.945 276.133 269.414 276.18 268.742C276.227 268.055 276.312 267.359 276.438 266.656C276.562 265.938 276.719 265.258 276.906 264.617C277.109 263.977 277.336 263.5 277.586 263.188ZM281.359 271.883C281.25 272.055 281.133 272.164 281.008 272.211C280.867 272.273 280.75 272.281 280.656 272.234C280.547 272.203 280.477 272.125 280.445 272C280.414 271.875 280.445 271.719 280.539 271.531C280.586 271.438 280.695 271.227 280.867 270.898C281.023 270.57 281.219 270.18 281.453 269.727C281.672 269.258 281.914 268.758 282.18 268.227C282.445 267.68 282.695 267.164 282.93 266.68C283.18 266.195 283.406 265.766 283.609 265.391C283.812 265 283.961 264.719 284.055 264.547C283.883 264.391 283.766 264.281 283.703 264.219C283.641 264.141 283.594 263.984 283.562 263.75C283.531 263.547 283.578 263.281 283.703 262.953C283.828 262.625 283.992 262.312 284.195 262.016C284.398 261.703 284.625 261.438 284.875 261.219C285.125 261 285.367 260.891 285.602 260.891C286.039 260.891 286.344 261.031 286.516 261.312C286.703 261.594 286.812 261.883 286.844 262.18C286.875 262.383 286.859 262.641 286.797 262.953C286.734 263.266 286.617 263.547 286.445 263.797C286.492 263.828 286.555 263.867 286.633 263.914C286.711 263.945 286.836 263.961 287.008 263.961C287.258 263.961 287.43 263.945 287.523 263.914C287.633 263.883 287.797 263.867 288.016 263.867C288.281 263.867 288.5 263.938 288.672 264.078C288.844 264.203 288.984 264.367 289.094 264.57C289.203 264.758 289.281 264.969 289.328 265.203C289.391 265.422 289.43 265.625 289.445 265.812C289.492 266.203 289.391 266.609 289.141 267.031C288.891 267.453 288.586 267.914 288.227 268.414C288.008 268.727 287.789 269.078 287.57 269.469C287.352 269.859 287.258 270.211 287.289 270.523C287.32 270.727 287.375 270.891 287.453 271.016C287.531 271.141 287.75 271.203 288.109 271.203C288.375 271.203 288.664 271.109 288.977 270.922C289.305 270.719 289.633 270.469 289.961 270.172C290.305 269.859 290.641 269.523 290.969 269.164C291.297 268.789 291.602 268.43 291.883 268.086C292.164 267.727 292.398 267.406 292.586 267.125C292.789 266.844 292.938 266.641 293.031 266.516C293.109 266.391 293.211 266.305 293.336 266.258C293.461 266.211 293.57 266.211 293.664 266.258C293.758 266.305 293.812 266.398 293.828 266.539C293.859 266.68 293.805 266.867 293.664 267.102C293.57 267.258 293.406 267.508 293.172 267.852C292.953 268.195 292.68 268.578 292.352 269C292.039 269.422 291.688 269.859 291.297 270.312C290.906 270.75 290.492 271.156 290.055 271.531C289.633 271.891 289.203 272.188 288.766 272.422C288.344 272.656 287.938 272.773 287.547 272.773C287.141 272.773 286.805 272.695 286.539 272.539C286.273 272.383 286.055 272.195 285.883 271.977C285.727 271.742 285.609 271.492 285.531 271.227C285.469 270.945 285.445 270.688 285.461 270.453C285.477 270.266 285.523 270.07 285.602 269.867C285.695 269.648 285.797 269.43 285.906 269.211C286.031 268.977 286.156 268.75 286.281 268.531C286.422 268.297 286.547 268.07 286.656 267.852C286.922 267.398 287.133 267.016 287.289 266.703C287.461 266.375 287.547 266.102 287.547 265.883C287.547 265.742 287.516 265.617 287.453 265.508C287.391 265.398 287.289 265.344 287.148 265.344C287.055 265.344 286.984 265.352 286.938 265.367C286.906 265.367 286.867 265.367 286.82 265.367C286.789 265.367 286.734 265.375 286.656 265.391C286.594 265.391 286.492 265.391 286.352 265.391C286.148 265.391 285.977 265.359 285.836 265.297C285.695 265.234 285.562 265.188 285.438 265.156C285.375 265.266 285.234 265.5 285.016 265.859C284.797 266.219 284.539 266.641 284.242 267.125C283.961 267.609 283.656 268.117 283.328 268.648C283.016 269.18 282.719 269.68 282.438 270.148C282.156 270.602 281.922 270.992 281.734 271.32C281.531 271.633 281.406 271.82 281.359 271.883Z" fill="white"/>
<path d="M154.898 118.328C154.742 120.073 154.221 121.635 153.336 123.016C152.451 124.396 151.318 125.555 149.938 126.492C148.583 127.456 147.047 128.185 145.328 128.68C143.609 129.174 141.839 129.422 140.016 129.422C139.339 129.422 138.701 129.37 138.102 129.266C137.529 129.188 137.008 129.083 136.539 128.953C136.07 128.823 135.667 128.693 135.328 128.562C135.016 128.458 134.794 128.367 134.664 128.289C134.43 128.159 134.234 127.99 134.078 127.781C133.948 127.599 133.87 127.326 133.844 126.961C133.818 126.753 133.805 126.583 133.805 126.453C133.805 126.349 133.818 126.232 133.844 126.102C133.87 125.971 133.922 125.789 134 125.555C134.052 125.346 134.13 125.047 134.234 124.656C134.286 124.422 134.482 123.68 134.82 122.43C135.185 121.206 135.615 119.708 136.109 117.938C136.604 116.141 137.138 114.201 137.711 112.117C138.31 110.034 138.883 108.016 139.43 106.062C139.977 104.109 140.471 102.352 140.914 100.789C141.357 99.2005 141.682 98.0286 141.891 97.2734C141.526 97.5339 141.161 97.8073 140.797 98.0938C140.458 98.3802 140.107 98.6927 139.742 99.0312C139.352 99.3958 138.961 99.526 138.57 99.4219C138.206 99.2917 137.945 98.9661 137.789 98.4453C137.737 98.1849 137.698 97.9115 137.672 97.625C137.646 97.3906 137.646 97.1302 137.672 96.8438C137.724 96.5312 137.828 96.2318 137.984 95.9453C138.844 95.4245 139.677 94.9818 140.484 94.6172C141.318 94.2526 142.112 93.9271 142.867 93.6406C143.023 93.1979 143.193 92.8594 143.375 92.625C143.583 92.3906 143.792 92.2344 144 92.1562C144.208 92.0781 144.43 92.0521 144.664 92.0781C144.898 92.1042 145.146 92.1432 145.406 92.1953C145.979 92.3255 146.357 92.5078 146.539 92.7422C146.904 92.6901 147.255 92.651 147.594 92.625C147.932 92.599 148.284 92.5859 148.648 92.5859C150.159 92.5859 151.474 92.7812 152.594 93.1719C153.714 93.5625 154.625 94.0964 155.328 94.7734C156.057 95.4245 156.578 96.1927 156.891 97.0781C157.203 97.9635 157.32 98.901 157.242 99.8906C157.164 100.75 156.93 101.648 156.539 102.586C156.174 103.497 155.68 104.409 155.055 105.32C154.43 106.206 153.701 107.078 152.867 107.938C152.034 108.771 151.109 109.539 150.094 110.242C150.901 110.711 151.617 111.258 152.242 111.883C152.867 112.508 153.388 113.185 153.805 113.914C154.221 114.643 154.521 115.385 154.703 116.141C154.885 116.896 154.951 117.625 154.898 118.328ZM141.969 108.758C141.917 109.018 141.852 109.279 141.773 109.539C141.721 109.799 141.656 110.073 141.578 110.359C141.891 110.021 142.411 109.708 143.141 109.422C143.896 109.135 144.612 108.992 145.289 108.992C145.654 108.992 146.005 109.018 146.344 109.07C146.682 109.096 147.008 109.135 147.32 109.188C148.049 108.719 148.753 108.12 149.43 107.391C150.107 106.635 150.693 105.841 151.188 105.008C151.708 104.148 152.125 103.276 152.438 102.391C152.776 101.505 152.984 100.685 153.062 99.9297C153.219 98.1328 152.906 96.8047 152.125 95.9453C151.37 95.0599 150.289 94.6172 148.883 94.6172C147.945 94.6172 146.969 94.7865 145.953 95.125C145.745 95.8021 145.484 96.6484 145.172 97.6641C144.859 98.6536 144.521 99.7474 144.156 100.945C143.818 102.143 143.453 103.406 143.062 104.734C142.672 106.062 142.307 107.404 141.969 108.758ZM141.305 111.336C140.94 112.742 140.576 114.266 140.211 115.906C139.872 117.312 139.508 118.953 139.117 120.828C138.727 122.677 138.31 124.656 137.867 126.766C138.023 126.896 138.232 126.987 138.492 127.039C138.753 127.091 139.013 127.143 139.273 127.195C139.56 127.247 139.872 127.273 140.211 127.273C141.383 127.273 142.568 127.026 143.766 126.531C144.99 126.062 146.109 125.385 147.125 124.5C148.141 123.615 148.987 122.547 149.664 121.297C150.367 120.021 150.784 118.602 150.914 117.039C150.966 116.336 150.914 115.711 150.758 115.164C150.628 114.591 150.419 114.083 150.133 113.641C149.872 113.172 149.56 112.768 149.195 112.43C148.857 112.065 148.492 111.753 148.102 111.492C146.904 112.143 145.589 112.69 144.156 113.133C143.688 113.263 143.284 113.289 142.945 113.211C142.607 113.107 142.32 112.964 142.086 112.781C141.852 112.573 141.669 112.339 141.539 112.078C141.409 111.818 141.331 111.57 141.305 111.336ZM164.43 118.992C162.685 118.992 161.409 118.432 160.602 117.312C159.82 116.193 159.495 114.682 159.625 112.781C159.729 111.609 159.951 110.112 160.289 108.289C160.576 106.727 161.005 104.76 161.578 102.391C162.177 100.021 162.984 97.1562 164 93.7969C164.312 93.5885 164.625 93.4323 164.938 93.3281C165.276 93.1979 165.576 93.1068 165.836 93.0547C166.122 92.9766 166.422 92.9245 166.734 92.8984C166.969 92.8724 167.216 92.8594 167.477 92.8594C167.685 92.8594 167.893 92.8854 168.102 92.9375C168.31 92.9635 168.479 93.0286 168.609 93.1328C167.281 96.5443 166.24 99.4609 165.484 101.883C164.755 104.305 164.208 106.297 163.844 107.859C163.401 109.682 163.128 111.18 163.023 112.352C162.945 113.784 163.154 114.799 163.648 115.398C164.169 115.997 164.938 116.297 165.953 116.297C166.76 116.297 167.581 115.997 168.414 115.398C169.247 114.773 170.055 113.901 170.836 112.781C171.617 111.635 172.333 110.268 172.984 108.68C173.661 107.065 174.234 105.255 174.703 103.25C174.911 102.13 175.146 101.01 175.406 99.8906C175.615 98.9271 175.849 97.8984 176.109 96.8047C176.37 95.6849 176.617 94.6432 176.852 93.6797C177.086 93.4714 177.333 93.3151 177.594 93.2109C177.88 93.0807 178.141 92.9766 178.375 92.8984C178.661 92.7943 178.948 92.7292 179.234 92.7031C179.495 92.6771 179.755 92.6771 180.016 92.7031C180.224 92.7292 180.432 92.7682 180.641 92.8203C180.875 92.8724 181.057 92.9635 181.188 93.0938C180.745 94.474 180.354 95.724 180.016 96.8438C179.703 97.9635 179.43 98.9271 179.195 99.7344C178.909 100.672 178.661 101.505 178.453 102.234C178.245 103.016 177.997 104.031 177.711 105.281C177.424 106.375 177.073 107.755 176.656 109.422C176.24 111.089 175.732 113.146 175.133 115.594C174.977 116.219 174.781 117 174.547 117.938C174.312 118.875 174 119.852 173.609 120.867C173.245 121.883 172.776 122.885 172.203 123.875C171.656 124.891 170.966 125.802 170.133 126.609C169.326 127.417 168.362 128.068 167.242 128.562C166.122 129.057 164.82 129.305 163.336 129.305C162.477 129.279 161.708 129.148 161.031 128.914C160.432 128.706 159.872 128.393 159.352 127.977C158.857 127.586 158.57 127.013 158.492 126.258C158.622 125.971 158.766 125.711 158.922 125.477C159.078 125.242 159.234 125.021 159.391 124.812C159.573 124.578 159.755 124.357 159.938 124.148C160.12 123.966 160.315 123.797 160.523 123.641C160.706 123.51 160.901 123.393 161.109 123.289C161.318 123.185 161.526 123.133 161.734 123.133C161.839 123.367 161.995 123.641 162.203 123.953C162.411 124.266 162.672 124.552 162.984 124.812C163.297 125.099 163.648 125.333 164.039 125.516C164.43 125.698 164.859 125.789 165.328 125.789C165.953 125.789 166.617 125.581 167.32 125.164C168.023 124.773 168.714 124.083 169.391 123.094C170.094 122.13 170.771 120.815 171.422 119.148C172.073 117.482 172.685 115.385 173.258 112.859C172.919 113.458 172.49 114.109 171.969 114.812C171.448 115.516 170.823 116.18 170.094 116.805C169.391 117.43 168.557 117.951 167.594 118.367C166.656 118.784 165.602 118.992 164.43 118.992ZM181.969 97.5469C181.656 97.651 181.422 97.6641 181.266 97.5859C181.109 97.5078 180.992 97.3776 180.914 97.1953C180.836 97.013 180.797 96.8177 180.797 96.6094C180.797 96.375 180.81 96.1536 180.836 95.9453C180.862 95.763 180.901 95.5547 180.953 95.3203C181.031 95.0859 181.122 94.8646 181.227 94.6562C181.331 94.4479 181.448 94.2786 181.578 94.1484C181.734 93.9922 181.93 93.888 182.164 93.8359C183.362 93.6276 184.521 93.4714 185.641 93.3672C186.786 93.263 187.815 93.1849 188.727 93.1328C189.768 93.0547 190.771 93.0156 191.734 93.0156C191.943 93.0156 192.151 93.0286 192.359 93.0547C192.568 93.0547 192.776 93.0547 192.984 93.0547C193.219 93.0026 193.401 92.9896 193.531 93.0156C193.688 93.0156 193.818 93.0286 193.922 93.0547C194.677 93.0807 195.458 93.1198 196.266 93.1719C196.943 93.224 197.698 93.2891 198.531 93.3672C199.391 93.4193 200.237 93.4974 201.07 93.6016C201.148 93.8099 201.161 94.0703 201.109 94.3828C201.083 94.5391 201.057 94.6953 201.031 94.8516C201.005 95.0078 200.94 95.151 200.836 95.2812C200.758 95.4115 200.654 95.5417 200.523 95.6719C200.419 95.776 200.289 95.8672 200.133 95.9453C199.247 95.9193 198.388 95.9062 197.555 95.9062C196.747 95.8802 196.031 95.8672 195.406 95.8672H193.297C192.958 97.0651 192.542 98.5495 192.047 100.32C191.552 102.065 191.044 103.914 190.523 105.867C190.029 107.794 189.547 109.721 189.078 111.648C188.635 113.549 188.284 115.268 188.023 116.805C187.763 118.289 187.503 119.747 187.242 121.18C187.138 121.779 187.021 122.404 186.891 123.055C186.786 123.706 186.682 124.344 186.578 124.969C186.5 125.594 186.422 126.193 186.344 126.766C186.266 127.339 186.201 127.859 186.148 128.328C185.732 128.536 185.341 128.693 184.977 128.797C184.612 128.927 184.286 129.018 184 129.07C183.661 129.148 183.349 129.188 183.062 129.188C182.438 129.188 182.047 129.109 181.891 128.953C181.76 128.823 181.747 128.549 181.852 128.133C181.93 127.768 182.164 126.779 182.555 125.164C182.711 124.487 182.906 123.628 183.141 122.586C183.401 121.57 183.701 120.333 184.039 118.875C184.378 117.391 184.781 115.672 185.25 113.719C185.719 111.74 186.253 109.474 186.852 106.922L189.469 96.0625C188.688 96.1667 187.919 96.2839 187.164 96.4141C186.409 96.5443 185.693 96.6875 185.016 96.8438C184.365 96.974 183.766 97.1042 183.219 97.2344C182.698 97.3646 182.281 97.4688 181.969 97.5469ZM204.156 129.266C202.932 129.266 201.786 129.07 200.719 128.68C199.677 128.289 198.753 127.742 197.945 127.039C197.164 126.336 196.539 125.503 196.07 124.539C195.602 123.602 195.354 122.573 195.328 121.453C195.302 119.995 195.536 118.693 196.031 117.547C196.5 116.401 197.125 115.385 197.906 114.5C198.714 113.615 199.625 112.872 200.641 112.273C201.656 111.648 202.698 111.141 203.766 110.75C203.193 110.438 202.646 110.06 202.125 109.617C201.63 109.174 201.188 108.68 200.797 108.133C200.406 107.586 200.094 107.013 199.859 106.414C199.625 105.815 199.508 105.216 199.508 104.617C199.456 102.794 199.82 101.141 200.602 99.6562C201.409 98.1719 202.438 96.9089 203.688 95.8672C204.938 94.7995 206.331 93.9792 207.867 93.4062C209.43 92.8333 210.953 92.5469 212.438 92.5469C213.427 92.5469 214.273 92.7161 214.977 93.0547C215.68 93.3672 216.253 93.7708 216.695 94.2656C217.138 94.7344 217.464 95.2552 217.672 95.8281C217.906 96.375 218.036 96.8828 218.062 97.3516C218.089 98.2109 217.971 99.0833 217.711 99.9688C217.477 100.854 217.164 101.661 216.773 102.391C216.409 103.094 215.992 103.68 215.523 104.148C215.055 104.591 214.599 104.812 214.156 104.812C213.818 104.812 213.466 104.76 213.102 104.656C212.789 104.578 212.424 104.448 212.008 104.266C211.591 104.083 211.174 103.81 210.758 103.445C211.435 103.185 212.034 102.82 212.555 102.352C213.076 101.857 213.505 101.31 213.844 100.711C214.208 100.112 214.469 99.5 214.625 98.875C214.807 98.224 214.898 97.612 214.898 97.0391C214.872 96.2057 214.677 95.5677 214.312 95.125C213.948 94.6562 213.362 94.4219 212.555 94.4219C211.461 94.4219 210.367 94.6953 209.273 95.2422C208.18 95.763 207.203 96.5052 206.344 97.4688C205.51 98.4062 204.846 99.5391 204.352 100.867C203.883 102.169 203.727 103.589 203.883 105.125C204.013 106.297 204.365 107.286 204.938 108.094C205.536 108.901 206.096 109.526 206.617 109.969C207.034 109.917 207.424 109.878 207.789 109.852C208.154 109.799 208.492 109.773 208.805 109.773C209.247 109.773 209.69 109.852 210.133 110.008C210.576 110.164 210.797 110.385 210.797 110.672C210.797 110.88 210.745 111.115 210.641 111.375C210.562 111.635 210.419 111.883 210.211 112.117C210.003 112.352 209.755 112.547 209.469 112.703C209.182 112.859 208.844 112.938 208.453 112.938C208.141 112.938 207.763 112.859 207.32 112.703C206.878 112.547 206.435 112.352 205.992 112.117C205.003 112.326 204.104 112.703 203.297 113.25C202.49 113.771 201.799 114.396 201.227 115.125C200.68 115.854 200.25 116.648 199.938 117.508C199.625 118.367 199.482 119.201 199.508 120.008C199.534 120.763 199.651 121.518 199.859 122.273C200.068 123.055 200.393 123.745 200.836 124.344C201.279 124.943 201.852 125.424 202.555 125.789C203.284 126.18 204.156 126.375 205.172 126.375C205.927 126.375 206.643 126.206 207.32 125.867C208.023 125.555 208.674 125.151 209.273 124.656C209.872 124.161 210.419 123.615 210.914 123.016C211.409 122.417 211.839 121.831 212.203 121.258C212.568 120.685 212.867 120.164 213.102 119.695C213.362 119.227 213.544 118.888 213.648 118.68C213.727 118.523 213.831 118.406 213.961 118.328C214.117 118.25 214.26 118.237 214.391 118.289C214.547 118.315 214.664 118.406 214.742 118.562C214.82 118.719 214.82 118.953 214.742 119.266C214.534 120.203 214.143 121.245 213.57 122.391C212.997 123.562 212.255 124.656 211.344 125.672C210.458 126.688 209.404 127.534 208.18 128.211C206.982 128.914 205.641 129.266 204.156 129.266ZM231.812 104.07C231.786 103.992 231.865 103.797 232.047 103.484C232.229 103.146 232.424 102.742 232.633 102.273C232.867 101.779 233.089 101.232 233.297 100.633C233.531 100.008 233.688 99.3698 233.766 98.7188C233.87 98.0677 233.87 97.4167 233.766 96.7656C233.661 96.1146 233.388 95.4896 232.945 94.8906C232.685 94.5781 232.294 94.4089 231.773 94.3828C231.279 94.3307 230.706 94.4089 230.055 94.6172C229.43 94.7995 228.766 95.099 228.062 95.5156C227.385 95.9062 226.76 96.375 226.188 96.9219C225.615 97.4427 225.12 98.0286 224.703 98.6797C224.312 99.3307 224.091 99.9948 224.039 100.672C223.987 101.219 224 101.727 224.078 102.195C224.182 102.664 224.312 103.094 224.469 103.484C224.625 103.875 224.794 104.24 224.977 104.578C225.159 104.917 225.328 105.216 225.484 105.477C225.693 105.841 226.018 106.245 226.461 106.688C226.904 107.13 227.385 107.638 227.906 108.211C228.427 108.758 228.948 109.383 229.469 110.086C229.99 110.789 230.445 111.583 230.836 112.469C231.227 113.354 231.5 114.344 231.656 115.438C231.812 116.531 231.799 117.742 231.617 119.07C231.331 120.997 230.875 122.599 230.25 123.875C229.625 125.177 228.935 126.219 228.18 127C227.451 127.781 226.708 128.341 225.953 128.68C225.198 129.044 224.573 129.279 224.078 129.383C223.688 129.461 223.219 129.526 222.672 129.578C222.151 129.656 221.591 129.643 220.992 129.539C220.419 129.461 219.833 129.279 219.234 128.992C218.635 128.732 218.102 128.315 217.633 127.742C217.086 127.091 216.656 126.388 216.344 125.633C216.057 124.982 215.849 124.227 215.719 123.367C215.562 122.534 215.628 121.661 215.914 120.75C216.122 120.516 216.344 120.307 216.578 120.125C216.812 119.943 217.047 119.786 217.281 119.656C217.542 119.5 217.815 119.357 218.102 119.227C218.44 119.122 218.779 119.031 219.117 118.953C219.404 118.901 219.703 118.875 220.016 118.875C220.354 118.849 220.667 118.888 220.953 118.992C220.562 119.435 220.289 119.852 220.133 120.242C220.029 120.451 219.951 120.633 219.898 120.789C219.794 121.284 219.755 121.87 219.781 122.547C219.833 123.25 219.977 123.914 220.211 124.539C220.471 125.19 220.836 125.737 221.305 126.18C221.773 126.648 222.398 126.896 223.18 126.922C225.081 126.974 226.695 125.49 228.023 122.469C228.466 121.531 228.688 120.581 228.688 119.617C228.714 118.654 228.596 117.729 228.336 116.844C228.102 115.958 227.776 115.138 227.359 114.383C226.969 113.602 226.565 112.938 226.148 112.391C225.732 111.844 225.224 111.258 224.625 110.633C224.052 109.982 223.479 109.279 222.906 108.523C222.333 107.768 221.812 106.948 221.344 106.062C220.901 105.177 220.602 104.214 220.445 103.172C220.237 101.714 220.367 100.385 220.836 99.1875C221.331 97.9635 221.982 96.8958 222.789 95.9844C223.622 95.0729 224.521 94.3307 225.484 93.7578C226.474 93.1849 227.346 92.8203 228.102 92.6641C232.294 91.8307 235.042 92.5339 236.344 94.7734C236.891 95.6328 237.19 96.5443 237.242 97.5078C237.294 98.4714 237.229 99.3698 237.047 100.203C236.891 101.01 236.682 101.701 236.422 102.273C236.188 102.82 236.031 103.12 235.953 103.172C235.797 103.328 235.549 103.497 235.211 103.68C234.872 103.862 234.326 104.031 233.57 104.188C233.362 104.24 233.154 104.266 232.945 104.266C232.763 104.266 232.568 104.253 232.359 104.227C232.151 104.201 231.969 104.148 231.812 104.07Z" fill="url(#paint0_linear)"/>
<defs>
<linearGradient id="paint0_linear" x1="186" y1="84" x2="186" y2="140" gradientUnits="userSpaceOnUse">
<stop stop-color="#2B38AD"/>
<stop offset="1" stop-color="#AD2B2B" stop-opacity="0.77"/>
</linearGradient>
</defs>
</svg>
