<svg width="20" height="24" viewBox="0 0 20 24" fill="none" xmlns="http://www.w3.org/2000/svg">
<path d="M8.214 6.967C7.778 7.229 7.421 7.567 7.127 7.946L6.144 7.606C6.539 7.019 7.052 6.5 7.697 6.111C8.343 5.721 9.041 5.509 9.744 5.434L9.586 6.463C9.114 6.546 8.648 6.705 8.214 6.967V6.967ZM9.9 4.409L10.054 3.399C8.894 3.436 7.728 3.757 6.663 4.399C5.599 5.041 4.771 5.923 4.198 6.933L5.164 7.267C5.65 6.468 6.326 5.77 7.181 5.255C8.035 4.739 8.967 4.466 9.9 4.409V4.409ZM12 10C12 11.105 11.105 12 10 12C8.895 12 8 11.105 8 10C8 8.895 8.895 8 10 8C11.105 8 12 8.895 12 10ZM11 10C11 9.449 10.551 9 10 9C9.449 9 9 9.449 9 10C9 10.551 9.449 11 10 11C10.551 11 11 10.551 11 10ZM20 0V24H8V22.5C8 22.224 7.776 22 7.5 22C7.224 22 7 22.224 7 22.5V24H6V22.5C6 22.224 5.776 22 5.5 22C5.224 22 5 22.224 5 22.5V24H4V22.5C4 22.224 3.776 22 3.5 22C3.224 22 3 22.224 3 22.5V24H0V0H20ZM16.516 18.448C15.809 17.614 13.886 15.367 13.545 14.908C13.032 14.215 12.22 14.632 12.533 15.465C12.785 16.139 13.798 18.818 14.223 19.899C15.15 22.25 18.164 20.394 16.516 18.448ZM18 10C18 5.582 14.418 2 10 2C5.582 2 2 5.582 2 10C2 14.418 5.582 18 10 18C10.798 18 11.567 17.88 12.294 17.662L11.597 15.816C10.877 13.903 13.151 12.696 14.347 14.311C14.493 14.506 14.993 15.106 15.544 15.758C17.056 14.304 18 12.264 18 10Z" fill="url(#paint0_linear)"/>
<defs>
<linearGradient id="paint0_linear" x1="10" y1="0" x2="10" y2="24" gradientUnits="userSpaceOnUse">
<stop stop-color="#035FE9"/>
<stop offset="1" stop-color="#BF0A97" stop-opacity="0.47"/>
</linearGradient>
</defs>
</svg>
