<svg width="541" height="455" viewBox="0 0 541 455" fill="none" xmlns="http://www.w3.org/2000/svg">
<path d="M331.038 392.957H199.07L203.544 342.845H326.565L331.038 392.957Z" fill="#E6E6E6"/>
<path d="M339.985 387.176H192.36V398.74H339.985V387.176Z" fill="#E6E6E6"/>
<path d="M517.806 20H13.4204C9.86112 20 6.44757 21.2184 3.93075 23.3872C1.41392 25.556 0 28.4975 0 31.5646V31.5646V296.586H531.226V31.5646C531.226 30.0459 530.879 28.5421 530.205 27.139C529.53 25.7359 528.542 24.4611 527.295 23.3872C526.049 22.3133 524.57 21.4615 522.941 20.8803C521.313 20.2991 519.568 20 517.806 20H517.806Z" fill="#3F3D56"/>
<path d="M0 296.586V339.953C0 341.472 0.34714 342.976 1.02158 344.379C1.69602 345.782 2.68454 347.057 3.93075 348.131C5.17695 349.205 6.65642 350.057 8.28466 350.638C9.91291 351.219 11.658 351.518 13.4204 351.518H517.806C521.365 351.518 524.779 350.3 527.295 348.131C529.812 345.962 531.226 343.021 531.226 339.953V296.586H0Z" fill="#E6E6E6"/>
<path d="M505.504 44.0929H26.8409V275.385H505.504V44.0929Z" fill="#E6E6E6"/>
<path d="M266.172 335.135C273.584 335.135 279.593 329.957 279.593 323.57C279.593 317.183 273.584 312.006 266.172 312.006C258.76 312.006 252.752 317.183 252.752 323.57C252.752 329.957 258.76 335.135 266.172 335.135Z" fill="#3F3D56"/>
<path d="M41.7658 53.8621C43.1723 53.8621 44.3126 52.8796 44.3126 51.6675C44.3126 50.4554 43.1723 49.4728 41.7658 49.4728C40.3592 49.4728 39.2189 50.4554 39.2189 51.6675C39.2189 52.8796 40.3592 53.8621 41.7658 53.8621Z" fill="white"/>
<path d="M51.433 53.8621C52.8396 53.8621 53.9798 52.8796 53.9798 51.6675C53.9798 50.4554 52.8396 49.4728 51.433 49.4728C50.0264 49.4728 48.8861 50.4554 48.8861 51.6675C48.8861 52.8796 50.0264 53.8621 51.433 53.8621Z" fill="white"/>
<path d="M61.1002 53.8621C62.5068 53.8621 63.6471 52.8796 63.6471 51.6675C63.6471 50.4554 62.5068 49.4728 61.1002 49.4728C59.6936 49.4728 58.5533 50.4554 58.5533 51.6675C58.5533 52.8796 59.6936 53.8621 61.1002 53.8621Z" fill="white"/>
<path d="M491.708 59.1249H39.2189V253.372H491.708V59.1249Z" fill="white"/>
<path d="M182.005 120.299C182.824 122.405 183.291 124.652 183.291 127C183.291 129.348 182.824 131.595 182.005 133.701H219V120.299L182.005 120.299ZM151.834 107.331C154.243 106.615 156.815 106.207 159.502 106.207C162.189 106.207 164.76 106.615 167.17 107.331V75H151.834L151.834 107.331ZM180.832 117.834L206.996 94.9679L196.151 85.4902L169.987 108.356C174.694 110.385 178.513 113.721 180.832 117.834ZM135.709 127C135.709 124.652 136.176 122.405 136.995 120.299H100V133.701H136.995C136.172 131.595 135.709 129.348 135.709 127ZM149.013 108.359L122.848 85.4927L112.003 94.9705L138.168 117.837C140.486 113.721 144.306 110.385 149.013 108.359ZM138.168 136.167L112.003 159.033L122.848 168.51L149.013 145.644C144.306 143.615 140.486 140.28 138.168 136.167ZM169.987 145.641L196.152 168.507L206.997 159.03L180.832 136.163C178.513 140.28 174.694 143.615 169.987 145.641ZM151.834 146.669V179H167.169V146.669C164.76 147.385 162.188 147.795 159.501 147.795C156.815 147.792 154.241 147.385 151.834 146.669Z" fill="#2B8199"/>
<path d="M131.274 161.147L130.884 161.485L131.274 161.147Z" fill="#A27E36"/>
<path d="M128.158 159.008C129.032 159.871 129.94 160.696 130.884 161.487L131.271 161.147C130.205 160.473 129.166 159.76 128.158 159.008Z" fill="#1D6B86"/>
<path d="M210.772 120.299H207.091C207.923 124.79 207.896 129.311 207.082 133.701H212.282C212.599 129.258 212.13 124.74 210.772 120.299Z" fill="#1D6B86"/>
<path d="M198.571 151.669C195.61 155.255 191.976 158.468 187.726 161.144L192.396 165.225C196.646 162.55 200.31 159.363 203.272 155.774L198.571 151.669Z" fill="#1D6B86"/>
<path d="M151.834 168.585V171.783C155.885 172.725 160.077 173.226 164.312 173.226C165.262 173.226 166.216 173.202 167.17 173.148V168.593C164.629 168.953 162.073 169.129 159.538 169.129C156.945 169.126 154.369 168.942 151.834 168.585Z" fill="#1D6B86"/>
<path d="M195.972 99.4561C196.88 100.375 197.748 101.333 198.571 102.332L198.989 101.967C198.023 101.088 197.014 100.25 195.972 99.4561Z" fill="#1D6B86"/>
<path d="M138.375 89.1452C114.452 99.3417 104.518 124.554 116.185 145.46C127.853 166.367 156.702 175.049 180.625 164.852C204.547 154.656 214.482 129.441 202.814 108.537C191.15 87.633 162.298 78.9488 138.375 89.1452ZM168.33 142.819C158.332 147.079 146.277 143.453 141.4 134.715C136.526 125.977 140.675 115.443 150.674 111.181C160.672 106.919 172.729 110.547 177.603 119.285C182.477 128.022 178.325 138.56 168.33 142.819Z" fill="#3194B0"/>
<path d="M146.573 103.836C131.932 110.076 125.854 125.504 132.992 138.299C140.133 151.093 157.786 156.405 172.427 150.167C187.068 143.926 193.145 128.499 186.007 115.704C178.867 102.909 161.213 97.5951 146.573 103.836ZM168.33 142.819C158.332 147.079 146.277 143.453 141.4 134.715C136.527 125.977 140.675 115.443 150.674 111.181C160.672 106.919 172.729 110.547 177.603 119.285C182.477 128.022 178.325 138.56 168.33 142.819Z" fill="#2B8199"/>
<path d="M123.442 121.391C122.619 121.739 121.659 121.843 120.709 121.623C118.61 121.133 117.361 119.25 117.922 117.419C121.148 106.836 129.455 98.0135 140.714 93.2161C142.667 92.3856 145.019 93.0935 145.972 94.7974C146.922 96.5012 146.115 98.5591 144.163 99.3922C134.956 103.316 128.16 110.531 125.522 119.189C125.215 120.187 124.432 120.967 123.442 121.391Z" fill="#CEEAF2"/>
<path d="M130.052 128.515C130.318 132.506 131.627 136.252 133.738 139.548C133.48 139.137 133.23 138.722 132.992 138.296C131.231 135.139 130.272 131.819 130.052 128.515ZM137.199 110.127C132.715 114.65 130.001 120.547 130.001 127L130.006 127.487C129.876 121.146 132.438 114.935 137.199 110.127ZM158.201 101.245C151.224 101.509 144.879 103.891 139.977 107.675C141.924 106.176 144.129 104.876 146.573 103.836C150.326 102.236 154.277 101.394 158.201 101.245ZM158.234 101.245H158.213H158.234ZM159.501 101.221L158.877 101.226L159.48 101.221C164.351 101.221 169.137 102.281 173.399 104.267C169.259 102.323 164.528 101.221 159.501 101.221Z" fill="#217794"/>
<path d="M159.48 101.221L158.877 101.226L158.234 101.245H158.213H158.201C154.277 101.394 150.329 102.235 146.576 103.836C144.13 104.876 141.927 106.176 139.98 107.675C138.993 108.436 138.064 109.256 137.202 110.127C132.441 114.935 129.879 121.146 130.009 127.487C130.015 127.834 130.031 128.174 130.055 128.518C130.277 131.822 131.234 135.142 132.994 138.299C133.232 138.725 133.482 139.14 133.741 139.551C135.63 142.498 138.161 145.085 141.168 147.176C137.161 142.775 134.752 137.213 134.752 131.154C134.752 116.916 147.958 105.375 164.25 105.375C171.183 105.375 177.547 107.481 182.583 110.982C180.082 108.235 176.959 105.942 173.395 104.27C169.137 102.281 164.348 101.221 159.48 101.221Z" fill="#1D6781"/>
<path d="M275.61 181.737C275.314 183.655 274.718 185.558 273.76 187.374C272.803 189.189 271.57 190.765 270.153 192.105L295.437 205.123L300.894 194.758L275.61 181.737ZM260.266 161.09C262.205 161.383 264.127 161.973 265.965 162.92C267.803 163.867 269.394 165.086 270.749 166.488L283.912 141.482L273.432 136.085L260.266 161.09ZM275.81 179.418L303 170.94L299.446 159.796L272.256 168.273C274.648 171.495 275.901 175.421 275.81 179.418ZM241.24 170.629C242.195 168.814 243.43 167.238 244.847 165.898L219.563 152.88L214.106 163.245L239.39 176.263C239.686 174.348 240.284 172.444 241.24 170.629ZM257.921 160.891L249.349 134L238.08 137.515L246.652 164.406C249.91 162.04 253.88 160.802 257.921 160.891ZM239.19 178.582L212 187.06L215.554 198.204L242.744 189.727C240.35 186.505 239.099 182.579 239.19 178.582ZM257.078 197.109L265.653 224L276.922 220.485L268.348 193.594C265.088 195.96 261.12 197.198 257.078 197.109ZM244.251 191.514L231.088 216.52L241.568 221.918L254.731 196.912C252.792 196.619 250.868 196.029 249.032 195.082C247.199 194.138 245.605 192.917 244.251 191.514Z" fill="#CEEAF2"/>
<path d="M224.314 195.475L223.903 195.603L224.314 195.475Z" fill="#2E582B"/>
<path d="M223.037 192.675C223.286 193.666 223.574 194.644 223.903 195.603L224.314 195.475L224.126 195.097C223.729 194.298 223.368 193.49 223.037 192.675Z" fill="#2888A7"/>
<path d="M292.745 190.558C291.504 194.261 289.67 197.766 287.295 200.928L290.844 202.755C292.869 199.431 294.388 195.77 295.268 191.859L292.745 190.558Z" fill="#A6D7E6"/>
<path d="M262.893 215.344L264.421 220.14L262.893 215.344Z" fill="#C28B3B"/>
<path d="M274.157 211.82L273.774 212.005C270.244 213.707 266.578 214.807 262.89 215.343L264.418 220.139C268.411 219.564 272.214 218.389 275.697 216.655L274.157 211.82Z" fill="#A6D7E6"/>
<path d="M235.329 208.468L234.029 210.938C236.949 213.577 240.284 215.775 243.953 217.391L245.812 213.858C242.07 212.63 238.523 210.817 235.329 208.468Z" fill="#A6D7E6"/>
<path d="M293.637 170.522C293.888 171.567 294.092 172.616 294.247 173.668L294.677 173.533C294.376 172.509 294.029 171.507 293.637 170.522Z" fill="#A6D7E6"/>
<path d="M241.223 145.992C222.79 154.883 215.136 176.867 224.126 195.096C233.116 213.326 255.346 220.896 273.777 212.005C292.209 203.114 299.864 181.128 290.874 162.901C281.884 144.674 259.656 137.101 241.223 145.992ZM264.301 192.794C256.597 196.508 247.307 193.346 243.552 185.727C239.796 178.108 242.993 168.921 250.697 165.207C258.401 161.493 267.691 164.654 271.446 172.273C275.204 179.892 272.005 189.079 264.301 192.794Z" fill="#CEEAF2"/>
<path d="M260.733 194.015C259.691 194.233 258.612 194.349 257.508 194.349L257.095 194.344C256.482 194.328 255.879 194.277 255.285 194.193C256.02 194.298 256.764 194.354 257.513 194.354C258.583 194.352 259.663 194.24 260.733 194.015ZM270.58 187.259C269.371 189.128 267.763 190.721 265.881 191.916C267.817 190.69 269.402 189.091 270.58 187.259ZM244.418 187.255C245.669 189.2 247.31 190.786 249.187 191.961C247.27 190.756 245.638 189.145 244.418 187.255ZM242.145 176.762C241.873 178.58 241.927 180.458 242.343 182.303C242.077 181.112 241.953 179.87 241.988 178.596C242.005 177.976 242.056 177.364 242.145 176.762ZM272.657 175.699C272.92 176.89 273.045 178.13 273.012 179.402C272.995 180.026 272.941 180.639 272.852 181.24C273.127 179.425 273.07 177.547 272.657 175.699ZM249.133 166.072C247.192 167.298 245.606 168.9 244.423 170.734C245.636 168.863 247.246 167.27 249.133 166.072ZM265.782 166.019C267.707 167.222 269.343 168.833 270.568 170.722C269.312 168.779 267.665 167.193 265.782 166.019ZM257.49 163.651C256.398 163.651 255.297 163.764 254.208 164.001C255.269 163.774 256.368 163.655 257.494 163.655L257.91 163.66C258.548 163.676 259.177 163.732 259.794 163.822C259.031 163.707 258.262 163.651 257.49 163.651Z" fill="#C28B3B"/>
<path d="M254.206 163.999C255.295 163.764 256.396 163.649 257.487 163.649C258.262 163.649 259.03 163.707 259.79 163.818C261.97 164.138 264.001 164.904 265.783 166.018C267.665 167.191 269.313 168.776 270.569 170.722C271.543 172.224 272.261 173.904 272.658 175.699C273.071 177.546 273.125 179.424 272.853 181.242C272.529 183.436 271.735 185.476 270.581 187.259C269.402 189.091 267.818 190.69 265.881 191.916C264.33 192.902 262.591 193.622 260.733 194.012C259.663 194.239 258.583 194.348 257.511 194.348C256.762 194.348 256.018 194.295 255.283 194.188C253.061 193.874 250.995 193.094 249.187 191.96C247.31 190.785 245.669 189.197 244.418 187.254C243.451 185.759 242.739 184.088 242.343 182.302C241.93 180.455 241.873 178.577 242.145 176.761C242.469 174.563 243.265 172.518 244.422 170.733C245.605 168.901 247.192 167.297 249.133 166.071C250.664 165.102 252.377 164.392 254.206 163.999ZM265.984 158.145C269.658 159.614 272.856 162.005 275.286 165.028C271.406 161.975 266.503 160.139 261.16 160.139C248.607 160.139 238.432 170.202 238.432 182.617C238.432 187.9 240.288 192.75 243.375 196.587C240.401 194.25 238.03 191.192 236.538 187.682C239.89 195.582 247.685 201.223 256.907 201.462L257.512 201.469C269.786 201.469 279.893 191.791 280.217 179.585C280.471 169.94 274.537 161.55 265.984 158.145Z" fill="#A6D7E6"/>
<path d="M229.717 174.109C229.083 174.413 228.344 174.503 227.611 174.311C225.994 173.884 225.031 172.243 225.463 170.645C227.949 161.418 234.35 153.725 243.025 149.542C244.53 148.818 246.342 149.435 247.076 150.921C247.809 152.406 247.187 154.201 245.682 154.927C238.589 158.349 233.352 164.64 231.319 172.189C231.08 173.06 230.48 173.74 229.717 174.109Z" fill="white"/>
<path d="M257.499 156.522C244.946 156.522 234.77 166.585 234.77 179C234.77 182.08 235.4 185.015 236.536 187.686C235.327 184.838 234.696 181.697 234.782 178.41C235.106 166.202 245.214 156.526 257.487 156.526L258.095 156.534C260.884 156.605 263.541 157.172 265.984 158.145C263.365 157.098 260.501 156.522 257.499 156.522Z" fill="#A6D7E6"/>
<path d="M257.49 156.527C245.216 156.527 235.108 166.205 234.785 178.411C234.698 181.698 235.329 184.839 236.538 187.687C238.031 191.197 240.401 194.252 243.376 196.592C240.289 192.755 238.432 187.906 238.432 182.622C238.432 170.207 248.608 160.144 261.16 160.144C266.503 160.144 271.406 161.98 275.286 165.033C272.855 162.01 269.657 159.617 265.984 158.15C263.541 157.177 260.884 156.61 258.095 156.539L257.49 156.527Z" fill="#86C5DA"/>
<g clip-path="url(#clip0_4_5)">
<path d="M369.849 73.4468L363.337 73.8951C362.68 73.9409 362.134 74.6756 362.065 75.6083L361.083 88.9502C360.991 89.5917 360.951 90.1873 360.96 90.7649C360.989 92.9968 361.628 95.0488 362.756 96.5485C363.563 97.6223 364.556 98.302 365.627 98.5722L366.248 144.424L357.784 145.005C357.064 145.055 356.493 145.924 356.507 146.949L356.615 154.891C356.628 155.915 357.222 156.705 357.942 156.656C359.378 156.558 360.568 158.141 360.596 160.185C360.622 162.17 359.431 163.979 358.041 164.075C357.35 164.122 356.751 165.035 356.764 166.019L357.335 208.003C357.453 216.694 362.515 223.425 368.617 223.007C371.573 222.802 374.331 220.972 376.382 217.85C378.432 214.729 379.528 210.691 379.473 206.48L378.904 164.497C378.896 164.004 378.753 163.543 378.504 163.212C378.255 162.881 377.921 162.708 377.576 162.732C376.88 162.78 376.221 162.44 375.719 161.772C375.217 161.104 374.934 160.192 374.92 159.2C374.894 157.219 376.083 155.409 377.474 155.312C378.193 155.263 378.764 154.394 378.751 153.368L378.643 145.427C378.629 144.401 378.037 143.613 377.315 143.662L368.851 144.245L368.231 98.3906C369.293 97.9731 370.266 97.1587 371.042 95.9764C372.127 94.3248 372.709 92.1867 372.679 89.9625C372.672 89.3783 372.615 88.7896 372.507 88.1627L371.163 74.982C371.067 74.0597 370.505 73.4002 369.849 73.4468ZM364.459 208.824C364.228 209.176 363.904 209.407 363.545 209.43C362.824 209.48 362.231 208.691 362.218 207.665L361.72 170.998C361.707 169.973 362.278 169.104 362.997 169.054C363.718 169.005 364.311 169.793 364.324 170.819L364.822 207.487C364.829 208.001 364.689 208.473 364.459 208.824ZM369.669 208.466C369.437 208.819 369.113 209.048 368.755 209.072C368.034 209.122 367.441 208.333 367.428 207.307L366.93 170.64C366.917 169.614 367.487 168.746 368.207 168.696C368.928 168.647 369.521 169.435 369.534 170.461L370.032 207.128C370.037 207.641 369.899 208.115 369.669 208.466ZM374.093 170.148L374.589 206.815C374.596 207.327 374.457 207.801 374.226 208.152C373.995 208.504 373.672 208.734 373.312 208.759C372.593 208.808 372 208.02 371.985 206.994L371.489 170.327C371.474 169.301 372.045 168.432 372.766 168.383C373.485 168.333 374.077 169.123 374.093 170.148Z" fill="url(#paint0_linear_4_5)"/>
</g>
<path d="M131.892 433.924C131.892 434.764 131.952 435.364 132.072 435.724C132.192 436.084 132.42 436.336 132.756 436.48C133.092 436.6 133.668 436.672 134.484 436.696L134.592 436.912L134.268 439.144C133.836 439.12 133.056 439.096 131.928 439.072C130.824 439.048 129.816 439.036 128.904 439.036C128.016 439.036 127.092 439.06 126.132 439.108C125.196 439.156 124.584 439.192 124.296 439.216L124.62 436.804C125.628 436.66 126.3 436.396 126.636 436.012C126.996 435.604 127.176 434.884 127.176 433.852V419.992C127.176 419.32 127.092 418.864 126.924 418.624C126.78 418.36 126.492 418.228 126.06 418.228C125.796 418.228 125.532 418.24 125.268 418.264C125.028 418.288 124.872 418.3 124.8 418.3L124.584 418.012L124.908 415.816C125.244 415.816 125.868 415.828 126.78 415.852C127.692 415.876 128.58 415.888 129.444 415.888C130.428 415.888 131.484 415.864 132.612 415.816C133.74 415.768 134.52 415.732 134.952 415.708C137.712 415.708 139.824 416.248 141.288 417.328C142.752 418.384 143.484 419.908 143.484 421.9C143.484 423.316 143.064 424.612 142.224 425.788C141.408 426.964 140.22 427.96 138.66 428.776L141.792 433.816C142.44 434.896 143.076 435.688 143.7 436.192C144.348 436.672 145.044 436.912 145.788 436.912L146.04 437.272L145.788 439.18L141.504 439.576C139.92 439.576 138.6 438.46 137.544 436.228L134.484 429.964H131.964L131.892 433.924ZM135.312 427.084C137.352 426.244 138.372 424.744 138.372 422.584C138.372 421.264 137.928 420.292 137.04 419.668C136.176 419.02 134.832 418.696 133.008 418.696C132.768 418.696 132.612 418.744 132.54 418.84C132.468 418.936 132.42 419.152 132.396 419.488C132.204 422.464 132.096 424.876 132.072 426.724L135.312 427.084ZM161.283 433.996C161.283 434.668 161.331 435.148 161.427 435.436C161.523 435.724 161.727 435.916 162.039 436.012C162.351 436.108 162.867 436.156 163.587 436.156C165.147 436.156 166.275 436.06 166.971 435.868C167.667 435.676 168.171 435.316 168.483 434.788C168.795 434.236 169.035 433.324 169.203 432.052L172.227 431.8L172.515 432.16C172.443 432.544 172.287 433.396 172.047 434.716C171.831 436.036 171.651 437.416 171.507 438.856L171.147 439.252C170.403 439.228 168.807 439.18 166.359 439.108C163.935 439.036 161.799 439 159.951 439C158.607 439 157.311 439.048 156.063 439.144C154.839 439.24 154.047 439.312 153.687 439.36L153.939 436.912C154.947 436.768 155.631 436.48 155.991 436.048C156.351 435.616 156.531 434.872 156.531 433.816L156.567 420.172C156.567 419.404 156.483 418.888 156.315 418.624C156.171 418.36 155.871 418.228 155.415 418.228C155.175 418.228 154.947 418.24 154.731 418.264C154.539 418.288 154.407 418.3 154.335 418.3L154.083 417.976L154.371 415.78C154.803 415.804 155.655 415.828 156.927 415.852C158.199 415.876 159.555 415.888 160.995 415.888C166.083 415.888 169.731 415.744 171.939 415.456L172.227 415.852C172.155 416.212 172.023 417.052 171.831 418.372C171.639 419.668 171.495 421.012 171.399 422.404L168.123 422.62C168.123 422.524 168.135 422.332 168.159 422.044C168.183 421.756 168.195 421.468 168.195 421.18C168.195 420.484 168.087 419.992 167.871 419.704C167.679 419.392 167.271 419.188 166.647 419.092C166.047 418.972 165.039 418.912 163.623 418.912C163.023 418.912 162.603 418.936 162.363 418.984C162.123 419.032 161.955 419.14 161.859 419.308C161.787 419.452 161.751 419.716 161.751 420.1L161.499 425.68L164.847 425.716C165.351 425.716 166.095 425.68 167.079 425.608C168.063 425.512 168.711 425.452 169.023 425.428L169.311 425.752L168.807 428.848C168.495 428.824 167.883 428.8 166.971 428.776C166.059 428.752 165.099 428.74 164.091 428.74C163.563 428.74 162.651 428.812 161.355 428.956C161.307 430.708 161.283 432.388 161.283 433.996ZM186.573 415.888C187.509 415.888 188.541 415.864 189.669 415.816C190.797 415.768 191.589 415.732 192.045 415.708C195.141 415.708 197.361 416.368 198.705 417.688C200.049 418.984 200.721 420.64 200.721 422.656C200.721 424.072 200.313 425.416 199.497 426.688C198.705 427.936 197.649 428.944 196.329 429.712C195.009 430.456 193.605 430.828 192.117 430.828H189.057L189.021 433.492C189.021 434.404 189.057 435.076 189.129 435.508C189.225 435.94 189.381 436.24 189.597 436.408C189.837 436.576 190.209 436.66 190.713 436.66C191.049 436.66 191.373 436.648 191.685 436.624C191.997 436.6 192.201 436.576 192.297 436.552L192.405 436.768L192.081 439.108C191.745 439.108 191.121 439.084 190.209 439.036C189.297 439.012 188.409 439 187.545 439C186.753 439 185.661 439.036 184.269 439.108C182.901 439.18 181.989 439.24 181.533 439.288L181.821 436.84C182.805 436.672 183.465 436.384 183.801 435.976C184.137 435.568 184.305 434.86 184.305 433.852V420.172C184.305 419.404 184.221 418.888 184.053 418.624C183.909 418.36 183.609 418.228 183.153 418.228C182.889 418.228 182.637 418.24 182.397 418.264C182.157 418.288 182.001 418.3 181.929 418.3L181.713 418.012L182.037 415.852L186.573 415.888ZM192.333 428.056C194.517 427.6 195.609 425.968 195.609 423.16C195.609 421.648 195.189 420.544 194.349 419.848C193.509 419.152 192.165 418.804 190.317 418.804C189.981 418.804 189.765 418.84 189.669 418.912C189.597 418.96 189.549 419.14 189.525 419.452C189.357 422.548 189.237 425.272 189.165 427.624L192.333 428.056ZM227.036 434.248C227.3 435.112 227.636 435.724 228.044 436.084C228.452 436.444 229.052 436.66 229.844 436.732L229.988 436.984L229.736 439.108C229.424 439.084 228.836 439.06 227.972 439.036C227.108 439.012 226.22 439 225.308 439C224.036 439 222.788 439.036 221.564 439.108C220.34 439.204 219.56 439.264 219.224 439.288L219.044 439L219.224 436.804C220.04 436.732 220.628 436.66 220.988 436.588C221.372 436.492 221.636 436.372 221.78 436.228C221.924 436.06 221.996 435.82 221.996 435.508C221.996 435.22 221.924 434.824 221.78 434.32L221.06 431.584C220.436 431.56 219.344 431.548 217.784 431.548C216.848 431.548 215.708 431.632 214.364 431.8L213.5 434.5C213.356 435.004 213.284 435.376 213.284 435.616C213.284 436.024 213.404 436.312 213.644 436.48C213.884 436.624 214.316 436.696 214.94 436.696H216.452L216.632 436.948L216.38 439.216C216.044 439.192 215.312 439.144 214.184 439.072C213.08 439.024 212.06 439 211.124 439C210.116 439 209.192 439.012 208.352 439.036C207.536 439.06 206.996 439.084 206.732 439.108L207.02 436.696C207.596 436.6 208.052 436.384 208.388 436.048C208.748 435.688 209.072 435.112 209.36 434.32L215.768 416.068L221.492 415.492L221.888 415.672C222.248 417.04 222.992 419.848 224.12 424.096C225.272 428.32 226.244 431.704 227.036 434.248ZM217.748 428.704C218.516 428.704 219.404 428.656 220.412 428.56L218.324 420.64H217.82L215.228 428.704H217.748ZM245.246 419.992C244.958 425.8 244.814 430.54 244.814 434.212C244.814 435.196 244.91 435.856 245.102 436.192C245.294 436.504 245.666 436.66 246.218 436.66C246.602 436.66 246.926 436.648 247.19 436.624C247.478 436.6 247.658 436.576 247.73 436.552L247.91 436.804L247.586 439.108C247.178 439.108 246.434 439.084 245.354 439.036C244.298 439.012 243.266 439 242.258 439C241.394 439 240.422 439.036 239.342 439.108C238.262 439.204 237.554 439.276 237.218 439.324L237.47 436.984C238.526 436.768 239.222 436.456 239.558 436.048C239.918 435.64 240.098 434.944 240.098 433.96V420.1C240.098 419.356 240.014 418.864 239.846 418.624C239.678 418.36 239.33 418.228 238.802 418.228L237.578 418.264L237.398 417.976L237.65 415.852L242.654 415.888C243.326 415.888 244.25 415.852 245.426 415.78C246.626 415.708 247.418 415.66 247.802 415.636L247.586 418.048C246.674 418.168 246.062 418.36 245.75 418.624C245.462 418.864 245.294 419.32 245.246 419.992ZM264.22 433.924C264.22 434.764 264.28 435.364 264.4 435.724C264.52 436.084 264.748 436.336 265.084 436.48C265.42 436.6 265.996 436.672 266.812 436.696L266.92 436.912L266.596 439.144C266.164 439.12 265.384 439.096 264.256 439.072C263.152 439.048 262.144 439.036 261.232 439.036C260.344 439.036 259.42 439.06 258.46 439.108C257.524 439.156 256.912 439.192 256.624 439.216L256.948 436.804C257.956 436.66 258.628 436.396 258.964 436.012C259.324 435.604 259.504 434.884 259.504 433.852V419.992C259.504 419.32 259.42 418.864 259.252 418.624C259.108 418.36 258.82 418.228 258.388 418.228C258.124 418.228 257.86 418.24 257.596 418.264C257.356 418.288 257.2 418.3 257.128 418.3L256.912 418.012L257.236 415.816C257.572 415.816 258.196 415.828 259.108 415.852C260.02 415.876 260.908 415.888 261.772 415.888C262.756 415.888 263.812 415.864 264.94 415.816C266.068 415.768 266.848 415.732 267.28 415.708C270.04 415.708 272.152 416.248 273.616 417.328C275.08 418.384 275.812 419.908 275.812 421.9C275.812 423.316 275.392 424.612 274.552 425.788C273.736 426.964 272.548 427.96 270.988 428.776L274.12 433.816C274.768 434.896 275.404 435.688 276.028 436.192C276.676 436.672 277.372 436.912 278.116 436.912L278.368 437.272L278.116 439.18L273.832 439.576C272.248 439.576 270.928 438.46 269.872 436.228L266.812 429.964H264.292L264.22 433.924ZM267.64 427.084C269.68 426.244 270.7 424.744 270.7 422.584C270.7 421.264 270.256 420.292 269.368 419.668C268.504 419.02 267.16 418.696 265.336 418.696C265.096 418.696 264.94 418.744 264.868 418.84C264.796 418.936 264.748 419.152 264.724 419.488C264.532 422.464 264.424 424.876 264.4 426.724L267.64 427.084ZM297.421 415.888C298.357 415.888 299.389 415.864 300.517 415.816C301.645 415.768 302.437 415.732 302.893 415.708C305.989 415.708 308.209 416.368 309.553 417.688C310.897 418.984 311.569 420.64 311.569 422.656C311.569 424.072 311.161 425.416 310.345 426.688C309.553 427.936 308.497 428.944 307.177 429.712C305.857 430.456 304.453 430.828 302.965 430.828H299.905L299.869 433.492C299.869 434.404 299.905 435.076 299.977 435.508C300.073 435.94 300.229 436.24 300.445 436.408C300.685 436.576 301.057 436.66 301.561 436.66C301.897 436.66 302.221 436.648 302.533 436.624C302.845 436.6 303.049 436.576 303.145 436.552L303.253 436.768L302.929 439.108C302.593 439.108 301.969 439.084 301.057 439.036C300.145 439.012 299.257 439 298.393 439C297.601 439 296.509 439.036 295.117 439.108C293.749 439.18 292.837 439.24 292.381 439.288L292.669 436.84C293.653 436.672 294.313 436.384 294.649 435.976C294.985 435.568 295.153 434.86 295.153 433.852V420.172C295.153 419.404 295.069 418.888 294.901 418.624C294.757 418.36 294.457 418.228 294.001 418.228C293.737 418.228 293.485 418.24 293.245 418.264C293.005 418.288 292.849 418.3 292.777 418.3L292.561 418.012L292.885 415.852L297.421 415.888ZM303.181 428.056C305.365 427.6 306.457 425.968 306.457 423.16C306.457 421.648 306.037 420.544 305.197 419.848C304.357 419.152 303.013 418.804 301.165 418.804C300.829 418.804 300.613 418.84 300.517 418.912C300.445 418.96 300.397 419.14 300.373 419.452C300.205 422.548 300.085 425.272 300.013 427.624L303.181 428.056ZM329.352 439.432C327.24 439.432 325.404 438.976 323.844 438.064C322.284 437.128 321.084 435.808 320.244 434.104C319.428 432.4 319.02 430.384 319.02 428.056C319.02 425.536 319.5 423.328 320.46 421.432C321.444 419.536 322.824 418.072 324.6 417.04C326.4 415.984 328.476 415.456 330.828 415.456C334.092 415.456 336.648 416.452 338.496 418.444C340.344 420.436 341.268 423.196 341.268 426.724C341.268 429.244 340.776 431.464 339.792 433.384C338.808 435.304 337.404 436.792 335.58 437.848C333.78 438.904 331.704 439.432 329.352 439.432ZM330.288 436.3C331.968 436.3 333.276 435.628 334.212 434.284C335.172 432.94 335.652 431.056 335.652 428.632C335.652 425.464 335.148 423.064 334.14 421.432C333.132 419.776 331.704 418.948 329.856 418.948C328.2 418.948 326.904 419.62 325.968 420.964C325.056 422.284 324.6 424.168 324.6 426.616C324.6 429.76 325.092 432.16 326.076 433.816C327.06 435.472 328.464 436.3 330.288 436.3ZM357.851 419.992C357.563 425.8 357.419 430.54 357.419 434.212C357.419 435.196 357.515 435.856 357.707 436.192C357.899 436.504 358.271 436.66 358.823 436.66C359.207 436.66 359.531 436.648 359.795 436.624C360.083 436.6 360.263 436.576 360.335 436.552L360.515 436.804L360.191 439.108C359.783 439.108 359.039 439.084 357.959 439.036C356.903 439.012 355.871 439 354.863 439C353.999 439 353.027 439.036 351.947 439.108C350.867 439.204 350.159 439.276 349.823 439.324L350.075 436.984C351.131 436.768 351.827 436.456 352.163 436.048C352.523 435.64 352.703 434.944 352.703 433.96V420.1C352.703 419.356 352.619 418.864 352.451 418.624C352.283 418.36 351.935 418.228 351.407 418.228L350.183 418.264L350.003 417.976L350.255 415.852L355.259 415.888C355.931 415.888 356.855 415.852 358.031 415.78C359.231 415.708 360.023 415.66 360.407 415.636L360.191 418.048C359.279 418.168 358.667 418.36 358.355 418.624C358.067 418.864 357.899 419.32 357.851 419.992ZM386.942 419.776C386.918 419.224 386.81 418.828 386.618 418.588C386.45 418.348 386.162 418.228 385.754 418.228L384.494 418.264L384.386 417.976L384.638 415.744C384.974 415.768 385.598 415.804 386.51 415.852C387.422 415.876 388.346 415.888 389.282 415.888C390.026 415.888 390.842 415.864 391.73 415.816C392.642 415.768 393.242 415.732 393.53 415.708L393.35 418.12C392.558 418.24 391.982 418.468 391.622 418.804C391.286 419.14 391.106 419.668 391.082 420.388L390.578 439.504L386.798 439.972C385.142 437.332 383.534 434.824 381.974 432.448C380.414 430.072 379.142 428.164 378.158 426.724C377.174 425.284 376.55 424.372 376.286 423.988H375.926L375.89 435.076C375.914 435.676 376.01 436.096 376.178 436.336C376.37 436.576 376.694 436.696 377.15 436.696C377.414 436.696 377.702 436.684 378.014 436.66C378.35 436.612 378.578 436.588 378.698 436.588L378.878 436.84L378.518 439.144C378.182 439.12 377.546 439.084 376.61 439.036C375.698 439.012 374.786 439 373.874 439C373.058 439 372.182 439.036 371.246 439.108C370.334 439.204 369.746 439.264 369.482 439.288L369.734 436.876C370.454 436.78 370.982 436.564 371.318 436.228C371.678 435.868 371.87 435.328 371.894 434.608L372.362 420.388C372.362 419.62 372.158 419.092 371.75 418.804C371.366 418.492 370.586 418.276 369.41 418.156L369.158 417.796L369.41 415.708C369.674 415.732 370.25 415.768 371.138 415.816C372.026 415.864 372.842 415.888 373.586 415.888C374.234 415.888 374.918 415.876 375.638 415.852C376.358 415.804 376.826 415.768 377.042 415.744C378.986 418.936 381.074 422.212 383.306 425.572C385.538 428.932 386.654 430.588 386.654 430.54H387.014L386.942 419.776ZM408.194 418.732C406.826 418.78 405.866 418.912 405.314 419.128C404.786 419.32 404.414 419.704 404.198 420.28C403.982 420.856 403.79 421.9 403.622 423.412L400.598 423.628C400.646 423.148 400.718 422.104 400.814 420.496C400.934 418.888 401.006 417.352 401.03 415.888L401.426 415.492L405.026 415.888H416.258L419.93 415.492L420.326 415.888C420.35 417.4 420.41 418.924 420.506 420.46C420.602 421.972 420.662 422.956 420.686 423.412L417.662 423.628C417.47 421.996 417.266 420.892 417.05 420.316C416.858 419.716 416.51 419.32 416.006 419.128C415.502 418.912 414.602 418.78 413.306 418.732C413.21 420.412 413.126 422.764 413.054 425.788C412.982 428.788 412.946 431.572 412.946 434.14C412.946 435.028 413.09 435.664 413.378 436.048C413.69 436.408 414.194 436.588 414.89 436.588C415.394 436.588 415.814 436.576 416.15 436.552C416.486 436.528 416.702 436.504 416.798 436.48L416.942 436.66L416.618 439.144C416.138 439.12 415.262 439.084 413.99 439.036C412.742 439.012 411.53 439 410.354 439C409.514 439 408.41 439.024 407.042 439.072C405.674 439.144 404.774 439.192 404.342 439.216L404.63 436.84C405.734 436.744 406.514 436.6 406.97 436.408C407.45 436.192 407.774 435.856 407.942 435.4C408.11 434.92 408.194 434.14 408.194 433.06V418.732Z" fill="white"/>
<defs>
<linearGradient id="paint0_linear_4_5" x1="338.76" y1="110.527" x2="414.29" y2="160.139" gradientUnits="userSpaceOnUse">
<stop stop-color="#F0973E"/>
<stop offset="1" stop-color="#F1B14F"/>
</linearGradient>
<clipPath id="clip0_4_5">
<rect width="230" height="327" fill="white" transform="translate(311)"/>
</clipPath>
</defs>
</svg>
